<?xml version="1.0" encoding="utf-8"?>
<!-- Generator: Adobe Illustrator 23.0.1, SVG Export Plug-In . SVG Version: 6.00 Build 0)  -->
<svg version="1.1" xmlns="http://www.w3.org/2000/svg" xmlns:xlink="http://www.w3.org/1999/xlink" x="0px" y="0px"
	 viewBox="0 0 1280 1024" style="enable-background:new 0 0 1280 1024;" xml:space="preserve">
<g id="Layer_1">
</g>
<g id="Layer_3">
	<g>
		<g>
			<path d="M838.55,613.32c4.21-1.21,7.47-3.12,11.33-2.01c3.79,1.1,7.72,1.79,11.63,2.36c2.45,0.36,2.42,1.36,1.48,3.12
				c-4.4,8.21-15.12,13.08-24.4,11.05c-4.22-0.92-4.26-0.92-4.02,3.18c0.09,1.44-0.22,2.61-1.4,3.47c-2.05,1.49-2.38,3.4-1.58,5.72
				c0.8,2.33,0.63,4.68-0.02,7.08c-1.16,4.28-1.93,8.68-3.24,12.91c-1.82,5.85-0.49,11.19,1.54,16.68c1.22,3.3,0.73,6.86-0.96,10.09
				c-0.21,0.41-0.6,0.98-0.95,1.01c-6.69,0.64-12.85,5.39-20.16,1.8c-4.3-2.11-5.82-5.38-6.65-9.5c-0.21-1.05-0.09-2.22-0.5-3.18
				c-0.94-2.21-2.19-4.96-4.48-5.19c-1.65-0.16-1.71,2.99-2.52,4.63c-1.11,2.25-1.98,4.64-3.11,6.88c-1.2,2.38-0.21,3.19,2.03,2.92
				c2.26-0.27,4.48-0.84,6.71-1.28c1.53-0.3,2.22,0.01,1.9,1.85c-0.77,4.48-1.49,8.98-1.96,13.5c-0.57,5.42-4.17,8.01-8.78,9.21
				c-5.03,1.31-9.18,4.03-13.32,6.88c-3.35,2.3-6.57,4.79-9.87,7.16c-0.68,0.49-1.44,1.19-2.17,1.21c-5.38,0.15-6.79,4.42-8.95,8.14
				c-4.75,8.2-9.73,16.29-12.13,25.58c-1.25,4.84-2.11,9.77-2.25,14.78c-0.11,3.83,0.21,7.7-0.12,11.51
				c-1.01,11.57,0.72,22.61,5.64,33.15c1.04,2.23,0.76,3.58-2.33,3.5c-3.59-0.1-7.16,0.08-10.73-0.53c-2.31-0.4-3.05-1.49-3.12-3.88
				c-0.25-8.95-0.77-17.9-1.66-26.97c-1.38,2.78-3.07,5.47-2.89,8.7c0.31,5.36-0.24,10.8,1.51,16.05c0.41,1.22,0.85,2.37-1.8,1.85
				c-2.96-0.57-6.15,0.78-9.35,0.59c-4.05-0.24-5.32-1.08-4.47-5.14c0.94-4.48,1.94-8.84,1.33-13.45c-0.15-1.14,0.65-2.08,1.45-2.79
				c2.65-2.34,3.97-5.45,4.72-8.72c1.83-7.92,4.32-15.71,6.59-23.44c3.27-11.13,0.3-21.31-0.91-31.88c-0.26-2.26-0.48-4.53-0.65-6.8
				c-0.2-2.62-1.04-3.49-3.89-2.43c-6.72,2.5-13.33,5.4-20.68,5.82c-2.41,0.14-4.78-0.14-7.16-0.11c-1.5,0.02-1.99,0.49-2.29,1.99
				c-2.33,11.53-0.75,22.93,1.12,34.29c1.3,7.92,3.08,15.76,6.74,23.02c0.48,0.96,0.97,1.97,1.69,2.74
				c5.1,5.46,5.24,12.66,6.75,19.35c0.51,2.28,0.27,4.65-3.28,4.49c-1.4-0.06-2.82,0.94-2.18,2.55c1.55,3.91-0.27,5.18-3.75,6.1
				c-4.65,1.23-9.1,2.74-13.89,0.46c-1.92-0.91-2.63-1.91-2.54-4.07c0.33-7.81-0.02-15.56-2.57-23.07c-0.77-2.28-0.98-4.63-0.4-7.09
				c0.88-3.69-0.47-7.14-1.76-10.48c-2.69-6.93-5.71-13.73-8.31-20.7c-1.89-5.06-3.05-10.21-2.14-15.82c0.5-3.09-0.56-6.4-1.83-9.43
				c-3.09-7.34-7.66-13.84-11.63-20.68c-0.82-1.42-1.53-1.28-2.24,0.12c-1.35,2.69-2.41,5.49-3.19,8.4
				c-2.61,9.7-7.39,18.49-12.19,27.16c-2.5,4.52-6.67,8.13-10.14,12.11c-5.63,6.45-9.07,13.7-9.16,22.46
				c-0.04,3.64-0.8,7.27-1.62,10.9c-0.98-1.9-0.71-3.84-0.38-5.79c0.3-1.77,1.08-3.61,0.82-5.3c-1.42-9.15,3.38-15.87,8.51-22.44
				c2.8-3.59,6.07-6.82,8.82-10.44c3.18-4.2,5.8-8.69,6.99-14.02c1.57-7.04,4.59-13.62,7.46-20.22c0.47-1.07,1.4-1.97,1.17-3.93
				c-5.98,3.39-12.66,4.27-17.64,9.77c-7.78,8.59-13.79,18.04-18.04,28.73c-1.39,3.49-2.03,7.13-2.76,10.77
				c-1.24,6.18-3.45,12.09-4.46,18.4c-0.92,5.73-0.56,11.45-1.39,17.12c-0.4,2.75,2.19,1.88,3.66,3.09
				c-7.99,1.85-5.56,8.05-5.82,13.11c-0.1,1.96,0.84,3.31,3.01,3.05c2.28-0.27,4.8,2.08,6.5,0.46c1.54-1.47-0.48-3.99-0.3-6.15
				c0.24-2.97,0.06-5.98,0.05-8.98c0-0.86-0.05-1.75,1.06-1.97c1.11-0.21,1.79,0.24,2.18,1.34c0.48,1.35,1.18,2.59,1.29,4.08
				c0.14,2.03,0.54,4.05,0.67,6.08c0.15,2.31,2.6,5.49,0.48,6.67c-2.66,1.48-6.22,2.48-9.62,1.46c-2.65-0.79-4.06-0.47-3.87,2.83
				c0.2,3.49-2.63,6.03-6.37,6.2c-0.12,0.01-0.24-0.02-0.36-0.02c-11.92,0.1-12.41-0.76-11.79-12.55c0.48-9.17,2.66-17.86,4.9-26.68
				c2.69-10.58,2.25-21.67,4.01-32.45c0.55-3.39,1.66-6.45,3.34-9.41c3.01-5.33,5.88-10.74,8.09-16.46
				c0.68-1.77,0.99-3.69,1.41-5.56c0.41-1.85-0.29-2.65-2.27-2.53c-10.01,0.62-19.9-0.06-29.59-2.78c-1.77-0.49-3.03-0.07-3.86,1.62
				c-0.47,0.97-1.15,1.84-1.57,2.83c-2.99,7.11-8.36,11.82-15.05,15.34c-5.14,2.71-9.15,6.96-13.57,10.64
				c-2.2,1.84-2.17,8.02-0.11,11.49c5.68,9.6,11.41,19.18,17.2,28.71c1.1,1.82,1.45,3.7,1.77,5.75c0.96,6.11,1.57,12.26,3.35,18.24
				c3.3,11.12,1.61,12.73-9.43,12.95c-0.6,0.01-1.2,0.01-1.8-0.03c-6.25-0.43-6.59-1-6.82-7.25c-0.55-14.47-2.33-28.62-11.44-40.72
				c-1.29-1.71-2.16-3.74-3.25-5.6c-0.41-0.7-0.64-1.75-1.61-1.76c-1.21-0.01-1.3,1.21-1.72,2.03c-5.51,10.9-6.25,22.44-4.97,34.36
				c0.5,4.68,1.75,8.86,4.58,12.61c1.1,1.45,2.07,3.62,0.95,5c-1.45,1.79-4.06,2.36-6.39,2.57c-2.25,0.2-4.54-0.16-6.82-0.28
				c-0.71-0.04-1.78,0.09-1.92-0.62c-0.65-3.12-3.35-2.55-5.37-3.12c-1.66-0.46-3.73-1.47-3.39,1.91c0.09,0.93-0.89,1.29-1.66,1.68
				c-2.71,1.39-5.55,1.35-8.44,0.89c-1.21-0.19-2.1-0.99-2.07-2.15c0.24-8.13-0.19-16.11,3.02-24.17
				c5.25-13.2,10.32-26.61,11.88-40.94c0.25-2.33,1.73-4.14,2.1-6.46c0.64-4.12,0.23-8.16-0.37-12.17
				c-1.01-6.87-2.51-13.67-2.95-20.62c-0.15-2.41-1.1-2.93-3.51-2.08c-6.76,2.39-13.32,5.43-20.67,5.88
				c-2.92,0.18-5.76-0.02-8.58-0.47c-2.89-0.46-3.98,0.64-4.04,3.39c-0.06,2.52-0.62,5.06-0.37,7.54c0.5,4.78-0.93,9.02-3.02,13.11
				c-0.94,1.85-0.91,3.5-0.54,5.5c2.51,13.58,5.9,26.94,10.3,40.02c3.14,9.31,6.99,18.37,11.13,27.28c1.44,3.11,0.85,4.68-2.59,5.8
				c-4.15,1.35-8.34,0.64-12.49,1.09c-1.3,0.14-1.76-0.94-2.18-2.01c-0.76-1.96-0.78-4-0.71-6.03c0.12-3.26-0.7-6.32-2.81-8.71
				c-2.46-2.8-3.26-6.08-3.71-9.53c-1.48-11.41-5.46-21.76-12.59-30.86c-2.97-3.79-5.33-8-7.54-12.25
				c-1.95-3.76-1.51-7.89-1.19-11.99c0.68-8.74-0.68-17.19-4.2-25.25c-0.31-0.7-0.51-1.84-1.6-1.6c-0.98,0.22-0.88,1.32-1.01,2.12
				c-1.13,6.86-1.97,13.79-4.32,20.39c-0.46,1.31-0.97,2.6-1.79,3.81c-0.72-1.68-0.01-3.19,0.45-4.67
				c2.35-7.48,3.76-15.12,4.31-22.93c0.04-0.6,0.16-1.21,0.09-1.79c-0.12-0.9-0.04-2.2-1.33-2.13c-1.03,0.06-0.86,1.27-0.98,2.06
				c-1.03,6.63-1.98,13.27-3.08,19.89c-0.34,2.04-0.78,4.13-2.42,5.76c0.97-6.53,2.44-12.94,3.03-20.09
				c-2.21,1.26-2.58,2.99-3.15,4.43c-4.17,10.72-9.85,20.41-17.86,28.8c-6.12,6.41-9.88,14.04-9.86,23.26
				c0.01,3.46-0.49,6.96-1.14,10.37c-1.8,9.38-1.67,18.48,1.83,27.58c1.91,4.98-0.02,7.74-5.19,9.23c-0.57,0.16-1.19,0.16-1.78,0.2
				c-9.66,0.69-10.45-0.46-10.84-10.13c-0.55-13.84,2.71-27.48,1.87-41.24c-0.59-9.65,5.5-16.47,8.5-24.59
				c3.39-9.15,6.47-18.4,4.19-28.32c-1.26-5.47-0.86-10.6,1.08-15.85c2.29-6.2,3.89-12.5,2.77-19.34
				c-0.65-3.98,0.16-8.03,2.16-11.83c2.4-4.55,3.78-9.57,6.22-14.15c5.94-11.12,16.04-18.3,24.89-26.67c1-0.94,2.34-1.1,3.72-0.97
				c13,1.26,25.41-0.44,37.56-5.72c11.52-5.01,23.53-8.88,35.34-13.2c4.2-1.54,8-3.62,11.54-6.43c5.73-4.55,12.52-7.08,19.61-8.59
				c2.99-0.63,5.91,0.62,8.63,1.96c1.07,0.53,2.08,1.23,3.19,1.66c0.99,0.39,2.29,0.7,2.95-0.37c0.64-1.05-0.56-1.72-1.21-2.31
				c-7.42-6.63-15.13-12.95-22.26-19.88c-16.37-15.92-32.53-32.22-42.69-52.99c-12.56-25.69-16.52-52.71-9.17-80.82
				c0.73-2.79,1.7-5.51,3.2-8c0.42-0.7,0.95-1.52,1.98-1.09c0.82,0.35,0.71,1.18,0.67,1.88c-0.12,1.92-0.34,3.83-0.43,5.74
				c-1.04,22.22,1.82,43.8,13.32,63.18c10.49,17.68,22.8,34,39.29,46.89c7.13,5.58,13.08,12.62,20.35,18.18
				c10.51,8.03,21.17,15.73,33.69,20.43c1.15,0.43,2.29,0.9,3.48,0.55c5.67-1.66,11.58-2.32,16.73-5.86
				c11.47-7.88,23.1-15.52,34.27-23.84c3.37-2.51,3.38-2.6-0.06-5.33c-12.41-9.87-24.32-20.34-35.14-31.91
				c-27.83-29.74-40.04-65.12-36.95-105.74c0.35-4.54,1.49-9,2.98-13.32c0.4-1.17,0.73-2.94,2.4-2.66c1.51,0.25,1.16,1.92,1.17,3.04
				c0.05,15.75,2.89,31,7.78,45.94c4.15,12.69,10.45,24.04,19,34.36c7.2,8.69,14.13,17.58,22.52,25.19
				c7.39,6.69,15.08,12.94,23.58,18.25c5.05,3.15,9.55,7.22,14.21,10.98c2.06,1.67,3.61,1.6,5.56-0.31
				c10.51-10.28,19.22-22.03,27.89-33.83c1.37-1.86,1.07-3.78,0.62-5.84c-3.55-16.24-4.55-32.54-0.97-48.91
				c0.92-4.23,2.13-8.38,4.07-12.27c0.47-0.94,0.97-2.27,2.24-1.98c1.43,0.33,0.95,1.78,0.84,2.77c-1.58,14.23-0.26,28.27,2.8,42.19
				c0.37,1.71,0.08,4.39,1.74,4.76c1.91,0.42,2.39-2.28,3.22-3.75c4.83-8.46,8.55-17.44,12.3-26.4c0.23-0.55,0.35-1.16,0.62-1.69
				c0.54-1.02,0.81-2.81,2.09-2.61c1.67,0.26,1.23,2.12,1.16,3.32c-0.61,11.3-2.79,22.39-5.42,33.35
				c-1.03,4.31-3.75,8.26-5.94,12.25c-1.15,2.1-1.5,3.91-0.16,6.01c9.01,14.04,18.09,28.02,30.48,39.47
				c1.97,1.82,3.34,1.04,4.94-0.33c12.86-10.99,25.07-22.7,37.51-34.16c18.99-17.5,31.77-39.33,43.72-61.62
				c9-16.78,16.28-34.46,20.83-53.1c0.38-1.57,0.6-4.17,2.25-4.06c2.16,0.14,1.75,2.77,1.82,4.45c0.53,12.15-0.52,24.26-1.97,36.26
				c-0.73,6.08-3.88,11.78-6.12,17.59c-5.9,15.31-14.01,29.43-23.09,42.99c-6.86,10.26-14.51,19.96-22.15,29.67
				c-5.86,7.45-11.71,14.88-17.82,22.13c-4.37,5.18-9.58,9.39-14.44,14c-5.3,5.03-5.31,4.97,0.37,9.43
				c10.39,8.16,20.95,15.95,32.95,21.72c7.46,3.59,14.46,2.07,20.7-1.57c19.41-11.31,37.26-24.91,54.99-38.69
				c18.91-14.69,32.55-33.73,45.46-53.42c8.31-12.67,15.06-26.16,20.39-40.35c0.39-1.04,0.76-2.76,2.17-2.44
				c1.34,0.3,1.05,2,1.01,3.14c-0.38,9.27-2.65,18.27-3.92,27.41c-0.78,5.66-3.37,10.48-5.82,15.36
				c-6.19,12.35-13.58,23.98-22.31,34.71c-12.81,15.75-27.01,30.18-41.5,44.35c-7.59,7.43-16.31,13.39-24.87,19.5
				c-3.52,2.51-7.81,4.08-11.42,6.64C841.05,610.61,839.72,611.23,838.55,613.32z M528.95,700.84c5.83-0.95,10.92-2.53,14.8-6.56
				c3.91-4.06,6.69-8.83,9.29-13.94c3.08-6.06,9.36-10.04,12.77-16.14c0.28-0.5,1.1-1.12,1.81-0.34c0.47,0.52,0.18,1.17-0.15,1.66
				c-2.13,3.18-3.4,7.14-6.53,9.41c-4.61,3.35-6.59,8.25-9.28,12.88c-4.29,7.39-9.5,13.95-19,14.89c-1.42,0.14-2.81,0.63-4.23,0.87
				c-2.08,0.35-2.39,2.04-2.27,3.53c0.14,1.89,1.9,1.52,3.13,1.37c1.03-0.13,2.04-0.64,3.01-1.08c10.18-4.59,19.18-11.35,29.28-16.1
				c1.44-0.68,2.54-1.77,3.22-3.26c2.23-4.9,4.34-9.88,6.81-14.65c2.07-3.99,1.11-6.67-2.07-9.69c-7.73-7.37-10.78-16.47-8.67-27.13
				c0.63-3.17,1.08-6.37,1.56-9.56c0.46-3.05-0.06-4.95-3.98-5c-5.29-0.08-9.88-1.8-12.52-7.16c-1.24-2.51-3.12-4.82-5.33-6.74
				c-1.76-1.54-0.81-2.45,0.84-3.07c0.78-0.29,1.63-0.4,2.43-0.64c0.55-0.17,1.27-0.22,1.39-0.94c0.13-0.75-0.53-1.04-1.06-1.23
				c-2.03-0.72-4.1-1.64-6.29-1.05c-3.81,1.02-7.69,1.87-11.23,3.75c-3.48,1.85-6.46,4.49-9.71,6.53
				c-6.87,4.32-14.7,6.99-22.52,9.29c-6.24,1.84-12.08,4.66-18.05,7.12c-9.36,3.86-18.66,7.46-28.98,7.38
				c-3.12-0.02-6.24,0.24-9.35,0.1c-4-0.18-7.25,1.3-10.08,3.94c-2.89,2.69-5.62,5.59-8.64,8.12c-8.29,6.93-13.29,15.95-16.96,25.87
				c-1.58,4.28-3.53,8.54-3.28,13.18c0.4,7.49-1.42,14.54-3.84,21.47c-1.55,4.44-2.23,8.88-0.79,13.39
				c2.98,9.31-0.39,18.05-2.8,26.66c-1.62,5.8-5.11,11.08-7.81,16.56c-0.91,1.85-1.63,3.71-1.73,5.81
				c-0.52,10.54-1.24,21.08-1.51,31.63c-0.07,2.88-1.62,5.75-0.65,8.45c1.17,3.27,1.45,6.5,1.24,9.85
				c-0.13,2.09,0.74,3.19,2.83,3.28c1.2,0.05,2.4,0.01,3.6,0.11c2.37,0.2,3.42-0.62,2.72-3.11c-0.49-1.75-0.9-3.71-0.11-5.31
				c0.98-1.97,0.55-2.62-1.44-2.81c-0.73-0.07-1.52-0.2-1.36-1.21c0.1-0.66,0.68-1.14,1.3-0.97c2.18,0.58,2.41-0.71,2.45-2.33
				c0.26-12.12,2.98-24.03,3.21-36.16c0.03-1.36,0.42-2.59,1.09-3.76c2.43-4.28,4.84-8.56,8.05-12.33
				c3.41-4.01,6.75-8.08,9.99-12.23c4.76-6.1,5.36-14.06,9.07-20.62c2.38-4.21,4.21-8.55,4.97-13.35c1.18-7.45,1.52-15-1.34-22
				c-2.77-6.8-3.04-13.99-4.76-20.93c-0.18-0.72-0.09-1.57,0.88-1.62c0.75-0.04,0.85,0.7,0.88,1.3c0.36,7.77,3.88,14.87,5,22.37
				c1.03,6.93,3.8,12.38,8.53,17.16c0.25,0.25,0.42,0.59,0.66,0.86c3.89,4.4,7.55,9.1,13.45,11.03c3.42,1.11,6.83,2.38,10.34,3.08
				c9.07,1.79,18.18,3.45,27.33,0.25c3.74-1.31,7.48-2.68,11.32-3.56c3.31-0.76,3.79-2.43,3.16-5.42
				c-1.83-8.69-3.02-17.43-0.74-26.25c1.61-6.23,0.61-12.47-0.73-18.52c-0.63-2.84-1.29-5.51-0.89-8.39
				c0.65-4.63,1.3-9.26,1.99-13.88c0.1-0.7-0.35-1.81,1.1-1.87c0.67,1.39,0.29,2.81,0.08,4.22c-1.11,7.4-1.21,14.78-0.16,22.21
				c0.79,5.57,1.73,11.28,0.52,16.81c-1.3,5.93-1.98,11.64-0.93,17.73c2.03,11.81,3.55,23.69,6.5,35.34
				c0.96,3.8,2.16,7.92,0.62,11.67c-1.06,2.58-1.06,5.05-1.41,7.62c-0.52,3.77,1.76,6.97,1.92,10.45
				c0.62,13.52,0.88,27.06,1.23,40.59c0.05,2.01,0.2,3.69,2.94,3.2c0.67-0.12,1.64-0.08,1.73,0.82c0.12,1.18-0.89,1.22-1.74,1.2
				c-0.84-0.02-1.87-0.24-2.04,0.89c-0.45,2.96-1.18,6.17,0.2,8.83c1.11,2.15,3.95,0.83,6.01,1.14c2.58,0.39,3.28-0.85,2.59-3.13
				c-1.17-3.89-1.75-7.87-2.11-11.9c-1.32-14.74,0.36-29.48,0.14-44.22c-0.06-4.34,0.9-8.66-0.66-12.94
				c-0.11-0.3,0.03-0.71,0.12-1.05c2.83-12.03,1.37-24.32,2.23-36.46c0.5-7.04,1.12-14.04,6.66-19.49c2.89-2.85,5.59-5.69,9.04-8.04
				c4.97-3.38,7.64-8.78,8.75-14.77c0.55-3,0.84-6.05,2.66-8.66c-0.67,3.2-0.01,6.44-0.86,9.57c-2.15,7.88-7.07,13.75-13.11,18.89
				C532.44,695.47,530.07,697.29,528.95,700.84z M648.13,697.85c6.02-1.12,11.06-3.35,15.71-6.56c0.98-0.68,0.51-2.22,2.05-2.7
				c11.32-3.46,18.83-10.89,22.76-22.05c0.41-1.17,1.38-2.29,2.37-3.1c3.77-3.07,6.71-6.71,9.06-11.01c1.07-1.95,0.83-2.79-0.53-4.2
				c-7.23-7.46-10.66-16.31-9.56-26.79c0.36-3.45,0.51-6.92,0.58-10.39c0.11-5.04-0.36-5.51-5.35-5.51c-5.94,0-11.23-1.07-14.72-6.7
				c-1.43-2.29-3.69-4.07-5.62-6.04c-0.87-0.89-2.71-1.08-2.5-2.74c0.25-1.91,2.12-2.15,3.55-2.58c3.46-1.04,6.97-1.9,10.84-2.94
				c-1.41-1.25-2.56-1.16-3.73-0.81c-3.81,1.14-7.72,1.67-11.64,2.25c-3.64,0.54-6.23,2.55-7.85,6.05
				c-2.6,5.62-5.8,10.59-12.64,12.07c-3.9,0.84-7.59,2.62-11.98,4.19c3.46,1.48,6.53,1.9,9.55,2.47c3.02,0.58,3.44,1.39,1.54,3.86
				c-5.27,6.87-13.79,14.18-25.44,9.92c-2.18-0.79-3.24-0.21-2.7,2.31c0.27,1.27,0.82,2.97-0.32,3.76
				c-3.55,2.47-2.92,5.61-1.98,8.96c0.37,1.31,0.03,2.61-0.29,3.9c-1.24,5.01-2.21,10.1-3.75,15.01c-1.45,4.62-0.16,8.73,1.25,13.96
				c0.96-4.61,1.99-8.14,1.82-11.93c-0.13-2.98,0.11-6.03,1.74-8.71c0.47-0.77,0.95-1.96,2.15-1.28c0.9,0.51,0.64,1.52,0.15,2.23
				c-1.66,2.46-1.35,5.23-1.55,7.98c-0.35,4.74-0.9,9.42-2.7,13.98c-1.09,2.76-1.64,6.21-0.57,9.08c2.17,5.82,3.37,11.76,3.11,17.89
				c-0.34,7.9-1.08,15.78-1.74,23.66c-0.13,1.51-0.46,2.97-1.18,4.45c-5.04,10.33-12.47,19.28-12.66,32.1
				c-0.19,12.89-1.91,26-7.12,38.27c-2.3,5.43-1.88,5.6,3.42,7.64c0.11,0.04,0.1,0.41,0.13,0.62c-4.8,0.53-4.81,0.53-4.94,5.76
				c-0.03,1.32-0.07,2.64-0.07,3.96c0,6.03,0.38,6.41,6.4,6.43c0.36,0,0.72-0.05,1.08-0.02c2.54,0.26,3.41-0.91,3.19-3.38
				c-0.23-2.63-0.79-5.29,0.07-8.98c1.58,3.86,1.18,6.94,1.54,9.9c0.08,0.69,0.12,1.59,1.13,1.44c0.95-0.14,0.93-1,0.75-1.71
				c-1.06-4.19-0.56-8.63-2-12.76c-0.45-1.28-0.49-2.54-0.11-3.88c2.45-8.78,3.14-17.88,4.77-26.81
				c1.87-10.22,2.93-20.63,7.42-30.24c3.56-7.61,6.51-15.68,12.24-21.88c8.24-8.92,15.87-18.26,22.38-28.48
				c2.37-3.72,5.27-6.74,8.62-9.48c2.41-1.97,4.77-4.06,6.25-6.87c4.86-9.24,9.69-18.49,11.89-28.83c0.09-0.44,0.29-0.94,1.55-0.6
				c-1.75,11.35-7.88,21.11-11.96,31.67c5.64-3.06,10.78-6.41,13.17-12.68c1.05-2.76,1.7-5.85,4.13-7.83
				c3.1-2.53,5.68-5.48,8.02-8.7c1-1.37,1.87-2.93,3.84-3.45c-1.95,3.35-4,6.68-6.68,9.41c-3.4,3.46-7.67,6.18-7.48,11.85
				c0.01,0.31-0.32,0.63-0.49,0.95c-3.77,6.77-11.58,9.42-15.92,15.6c-3.54-0.37-5.31,2.96-8.22,3.93
				C650.11,693.5,649.06,695.32,648.13,697.85z M766.06,606.67c-0.29-0.95-1.16-1.16-1.93-1.43c-6.31-2.21-11.74,0.09-16.78,3.57
				c-2.09,1.44-4.55,3.27-3.13,6.5c1.67,3.8,1.62,7.62,0.97,11.62c-0.88,5.45-1.38,10.95-2.22,16.41
				c-0.78,5.05,1.18,9.68,3.35,13.69c2.25,4.16,1.99,7.92,1.32,12.01c-0.25,1.51-1.19,2.74-2.83,2.87
				c-2.98,0.23-5.42,1.67-7.98,3.01c-2.55,1.34-5.43,2.17-8.34,1.56c-3.36-0.71-3.9,0.84-3.69,3.68c0.3,4.17,0.4,8.31-0.88,12.45
				c-0.8,2.6-1.42,5.52-1.06,8.15c1.84,13.17,3.63,26.36,6.71,39.33c1.3,5.49,2.64,10.83,0.41,16.81
				c-1.52,4.08-1.66,9.27,1.26,13.54c0.89,1.29,0.91,2.73,0.82,4.15c-0.73,10.44,0.87,20.82,0.72,31.24
				c-0.02,1.75,0.52,2.73,2.42,2.76c0.75,0.01,1.75-0.2,2.12,1.06c-0.8,0.63-1.57,1.38-2.47,1.91c-2.28,1.35-2.45,3.52-1.99,5.66
				c0.76,3.53,3.87,2.66,6.18,2.68c2.8,0.03,1.89-2.09,1.59-3.68c-0.34-1.87-1.08-3.76,0.86-5.29c0.79-0.62,0.97-1.58-0.09-2.01
				c-1.61-0.65-1.26-1.15-0.35-2.24c1.18-1.38,0.47-2.98-0.18-4.4c-0.44-0.98-1.25-1.83-1.16-2.97c0.93-11.43-0.53-22.97,1.56-34.35
				c0.38-2.09,0.3-4.08-0.8-5.91c-0.87-1.45-0.7-2.8-0.4-4.43c1.06-5.77,1.49-11.59,1.52-17.51c0.06-9.17-0.28-18.39,1.76-27.51
				c1.68-7.52,6.75-12.37,12.42-16.48c3.45-2.5,5.94-5.37,8.1-8.86c2.49-4.03,2.54-8.67,3.64-13.06c0.28-1.12,0.12-2.61,2.39-3.25
				c-1.52,3.57-0.83,6.93-1.75,10.19c-2.22,7.87-7.18,13.7-13.23,18.82c-2.16,1.83-4.45,3.59-5.37,6.58
				c0.51,0.13,0.85,0.33,1.16,0.29c0.95-0.13,1.9-0.31,2.82-0.56c9.52-2.5,15.09-9.25,18.94-17.77c0.84-1.86,1.31-3.86,2.95-5.26
				c3.66-3.12,7.2-6.35,9.06-10.98c0.25-0.62,0.9-1.11,1.43-1.58c0.52-0.46,1.16-1.11,1.88-0.59c0.76,0.54,0.34,1.33-0.06,1.91
				c-2.21,3.27-3.51,7.35-6.83,9.62c-4.34,2.97-6.03,7.51-8.45,11.73c-4.38,7.65-9.5,14.53-19.31,15.55
				c-1.42,0.15-2.81,0.64-4.22,0.9c-2.04,0.37-2.46,2-2.28,3.52c0.22,1.83,1.97,1.43,3.2,1.27c1.04-0.13,2.05-0.61,3.02-1.05
				c10.21-4.55,19.14-11.42,29.28-16.1c1.33-0.62,2.45-1.6,2.98-3c2.37-6.29,5.98-12.01,8.29-18.34c1-2.74,0.72-4.52-1.43-6.62
				c-7.76-7.58-10.78-16.74-8.55-27.52c0.7-3.39,1.09-6.85,1.54-10.29c0.33-2.52-0.66-3.72-3.4-3.76
				c-5.8-0.07-10.62-1.99-13.36-7.63c-0.72-1.48-1.96-2.72-2.98-4.05C762.05,609.12,762.05,609.13,766.06,606.67z M741.18,639
				c1.2-6.56,3.34-12.94,2.45-19.68c-0.14-1.03-0.36-2.43-1.48-2.72c-2.98-0.78-1.6-2.21-0.74-3.64c1.09-1.8,3.19-3.26,2.56-5.69
				c-1.14-4.39-2.52-8.72-3.8-13.08c-0.78-2.64-1.56-5.28-2.31-7.93c-0.31-1.08-0.49-2.35,0.83-2.75c1.54-0.47,1.64,0.94,1.89,1.97
				c0.17,0.7,0.23,1.43,0.45,2.11c0.32,0.98,1.06,1.47,1.89,0.69c1.78-1.67,4.03-3.07,2.51-6.3c-1.72-3.63-4-6.84-6.83-9.56
				c-2.65-2.55-6.17-3.89-9.59-1.97c-6.93,3.89-13.61,2.42-20.3-0.24c-2.61-1.04-3.89-0.53-4.83,2.16
				c-2.41,6.9-6.35,12.87-11.68,17.9c-1.29,1.21-2.5,2.19-0.71,4.11c1.65,1.77,2.86,2.44,4.99,0.58c3.18-2.76,6.32-5.52,8.93-8.83
				c0.42-0.53,0.81-1.46,1.64-1.02c1.02,0.53,0.56,1.57,0.13,2.19c-3.63,5.18-7.37,10.31-14.16,11.6c-1.03,0.19-1.49,0.45-1.59,1.45
				c-0.23,2.33,5.85,11.46,7.96,11.26c4.56-0.42,7.65,2.12,11.06,4.34c1.65,1.07,4.11,2.3,5.42,0.01c2.05-3.56,6.08-6.5,4.46-11.54
				c-0.27-0.83-0.12-1.75,0.95-2c0.8-0.18,1.44,0.29,1.75,0.97c1.02,2.2,1.96,4.43,0.3,6.77c-1.66,2.35-3.27,4.73-4.95,7.07
				c-1.12,1.55-2.66,2.5-4.6,2.38c-2.19-0.13-3.82,0.78-5.55,2.01c-4.41,3.13-7.11,2.5-10.19-1.96c-1.22-1.76-1.61-3.69-1.55-5.79
				c0.05-1.67-1.04-3.01-2.46-2.97c-1.24,0.03-0.76,1.76-0.85,2.76c-0.18,2.03-0.1,4.08-0.35,6.1
				c-1.77,14.76,4.14,25.74,16.82,32.95c3.31,1.88,5.32,3.98,5.95,7.58c0.13,0.72,0.37,1.73,1.1,1.68c3.23-0.24,3.78,2.48,5.03,4.37
				c2.89,4.37,11.63,6.3,16.11,3.42c0.56-0.36,0.96-1.03,1.32-1.62c0.56-0.93,0.12-2.85,1.76-2.65c1.62,0.2,1.07,1.82,1.02,2.98
				c-0.04,0.9,0.07,1.74,1.2,1.84c0.91,0.07,1.62-0.38,2.14-1.09c0.65-0.9,0.36-1.61-0.59-2.01c-2.47-1.04-1.37-2.62-0.65-4.13
				c0.5-1.05,2.09-2.47,1.21-3.1c-2.94-2.13-1.76-5.34-2.56-7.97c-0.98-3.24-3.06-6.08-3.67-9.33c-1.28-6.85-3.21-13.52-4.88-20.26
				c-0.23-0.94-0.97-1.97,0.38-3.25C737.67,625.56,737.77,632.71,741.18,639z M603.44,656.8c0.34,0.04,0.68,0.08,1.02,0.12
				c1.23-5.32,2.54-10.63,3.61-15.98c0.24-1.19,0.16-3.13-0.97-3.66c-3.32-1.57-1.09-2.88,0.04-4.08c1.72-1.84,2.27-3.44,1.85-6.29
				c-0.8-5.46-2.45-10.76-2.95-16.25c-0.11-1.17-0.62-2.7,1.08-2.9c1.63-0.18,1.14,1.43,1.34,2.39c0.2,0.94-0.11,2.81,1.43,2.16
				c1.69-0.71,4.01-1.72,3.25-4.43c-1.21-4.33-3.29-8.17-6.77-11.15c-1.9-1.63-4.23-2.24-6.39-1.31
				c-6.53,2.83-12.41,0.98-18.11-2.13c-2.39-1.31-3.3-0.44-4.33,1.66c-2.79,5.67-6.59,10.57-11.71,14.36
				c-1.29,0.95-2.54,1.65-1.04,3.67c1.41,1.89,2.46,2.04,4.36,0.79c3.57-2.35,6.84-5.05,10.04-8.4c0.25,0.96,0.49,1.33,0.4,1.61
				c-1.1,3.65-9.62,10.07-13.56,10.08c-0.93,0-1.6-0.19-1.88,0.95c-0.53,2.14,4.04,10.53,6.17,10.64c3.58,0.17,5.99,2.23,8.37,4.41
				c1.33,1.21,2.78,1.96,4.54,1.6c1.41-0.29,5.77-7.05,5.88-8.66c0.08-1.17-1-3.12,0.93-3.26c1.83-0.13,1.75,1.93,1.97,3.3
				c0.25,1.49-0.09,2.79-1.19,3.95c-1.57,1.65-2.99,3.43-4.5,5.15c-1.17,1.33-2.61,2.23-4.42,1.91c-1.92-0.34-3.41,0.3-5.05,1.22
				c-3.92,2.21-5.93,1.63-8.22-1.76c-1.21-1.79-1.62-3.71-1.37-5.81c0.16-1.34-0.3-2.7-1.57-2.85c-1.54-0.19-1.13,1.47-1.33,2.39
				c-0.34,1.64-0.46,3.33-0.81,4.97c-2.48,11.43,0.33,21.04,9.47,28.68c3.03,2.53,7.1,4.5,6.79,9.51c-0.01,0.2,0.21,0.57,0.35,0.59
				c3.47,0.45,3.62,3.73,4.99,5.92c2.23,3.57,5.81,3.3,9.27,3.49c2.49,0.14,4.9,0.2,5.67-2.98c0.08-0.34,0.68-0.77,1.04-0.77
				c0.72,0.01,0.9,0.68,0.9,1.3c-0.01,0.71-0.22,1.45-0.1,2.14c0.2,1.19,1.15,1.11,1.95,0.76c0.76-0.33,1.84-1.28,1.06-1.83
				c-3.15-2.18-0.96-3.77,0.34-5.52c0.37-0.5,0.78-1.35,0.35-1.62c-2.61-1.67-0.9-4.29-1.56-6.36c-2.72-8.63-2.99-17.68-4.61-26.5
				c-0.19-1.02-0.81-2.21,0.57-3.42C602.14,644.7,601.86,650.94,603.44,656.8z M801.75,608.29c0.2,0.95,0.4,1.33,0.31,1.61
				c-1.2,3.72-9.6,9.98-13.6,10.01c-0.96,0.01-1.59-0.1-1.84,1.02c-0.43,1.98,3.91,10.44,5.88,10.54c4,0.2,6.56,2.57,9.26,4.96
				c1.11,0.99,2.52,1.48,4,1.08c1.41-0.38,5.72-7.09,5.83-8.7c0.08-1.16-1.01-3.11,0.98-3.2c1.82-0.08,1.7,1.98,1.93,3.35
				c0.25,1.5-0.14,2.79-1.24,3.94c-1.57,1.65-2.99,3.43-4.5,5.15c-1.17,1.33-2.63,2.21-4.43,1.87c-1.93-0.37-3.41,0.35-5.04,1.26
				c-4.12,2.27-6.56,1.39-8.76-2.75c-0.9-1.69-0.87-3.44-0.76-5.25c0.07-1.2-0.5-2.34-1.63-2.48c-1.4-0.17-1.08,1.29-1.24,2.13
				c-0.35,1.76-0.48,3.57-0.86,5.33c-2.42,11.28,0.31,20.77,9.23,28.45c2.94,2.53,7.46,4.18,6.96,9.39
				c-0.03,0.29,0.28,0.88,0.48,0.9c3.37,0.38,3.52,3.52,4.8,5.63c1.53,2.52,3.78,3.74,6.59,3.57c3.03-0.19,6.98,2.05,8.52-2.83
				c0.1-0.33,0.71-0.73,1.06-0.71c0.74,0.04,0.86,0.73,0.85,1.34c-0.01,0.6-0.15,1.19-0.16,1.79c-0.01,0.66,0.3,1.15,1.01,1.23
				c0.78,0.08,1.41-0.24,1.9-0.82c0.44-0.52,0.57-1.16-0.09-1.53c-2.59-1.44-1.08-2.94-0.08-4.39c0.47-0.68,1.58-1.65,1.06-2.08
				c-2.65-2.2-0.96-5.26-1.81-7.8c-2.86-8.59-2.79-17.71-4.59-26.5c-0.13-0.64-0.45-1.41,0.8-2.19c2.09,5.94,1.73,12.3,3.88,18.17
				c1.71-5.2,3.05-10.39,4.12-15.63c0.24-1.17-0.06-3.27-0.81-3.69c-3.32-1.86-1.25-3.22,0.14-4.67c1.56-1.63,2.01-3.1,1.64-5.67
				c-0.8-5.59-2.45-11-3.02-16.61c-0.12-1.18-0.59-2.71,1.13-2.85c1.6-0.12,1.08,1.49,1.3,2.45c0.21,0.93-0.11,2.79,1.48,2.1
				c1.69-0.74,3.97-1.75,3.19-4.47c-1.2-4.21-3.22-7.95-6.51-10.92c-1.94-1.75-4.38-2.49-6.69-1.48c-6.54,2.84-12.4,0.91-18.12-2.15
				c-2.1-1.13-3.12-0.73-4.14,1.39c-2.67,5.59-6.42,10.38-11.29,14.26c-1.25,1-3.37,1.45-1.59,4.09c1.85,2.74,3.22,1.37,4.98,0.29
				C795.68,614.08,798.59,611.31,801.75,608.29z M856.42,410.44c-1.58,1.2-1.66,2.59-1.92,3.83c-1.99,9.35-5.81,18-10.05,26.5
				c-1.98,3.98-4.66,7.55-6.7,11.45c-7.45,14.28-16.14,27.78-24.96,41.21c-2.17,3.3-4.22,6.76-6.87,9.65
				c-6.53,7.13-13.36,13.97-20.58,20.45c-12.3,11.05-24.23,22.51-37.19,32.82c-3.66,2.91-7.16,6.01-10.69,9.07
				c-1.26,1.09-1.85,2.1,0.3,3.16c4.66,2.29,8.39,5.52,9.59,10.93c0.53,2.39,1.68,2.51,3.5,0.96c4.11-3.5,8.25-6.97,12.5-10.29
				c15.49-12.1,29.24-25.86,40.37-42.12c3.66-5.34,6.87-11.03,10.93-16.04c6.45-7.95,11.96-16.5,17.32-25.14
				c7.03-11.31,12.92-23.22,17.85-35.63c5-12.59,6.57-25.71,6.98-39.07C856.82,411.74,856.62,411.29,856.42,410.44z M479.18,446.86
				c-1.63,3.61-2.2,6.92-2.65,10.23c-3.13,23.05-0.26,45.18,10.19,66.15c3.81,7.64,8.35,14.81,13.27,21.76
				c5.7,8.06,12.82,14.9,19.31,22.27c12.88,14.62,29.02,25.82,42.51,39.83c1.67,1.74,3.13,1.13,4.67-0.23
				c4.43-3.91,6.2-9.6,9.59-14.22c0.73-1,0.12-1.64-0.86-2.26c-19.1-12.14-36.16-26.74-52.13-42.73
				c-13.68-13.7-25.31-29.08-33.7-46.31c-7.39-15.17-9.7-32.04-9.53-49.06C479.86,450.68,480.33,448.99,479.18,446.86z
				 M575.32,416.8c-1.58,1.2-1.43,2.37-1.59,3.39c-2.18,13.46-0.74,26.75,1.69,40.04c4.41,24.12,16.29,44.5,32.23,62.49
				c11.77,13.28,25.3,24.84,39.39,35.69c1.95,1.5,3.43,1.61,5.36-0.01c3.49-2.93,7.05-5.79,10.77-8.4c2.52-1.77,2.53-2.8,0.03-4.68
				c-8.5-6.41-17.49-12.08-25.84-18.77c-15.82-12.66-28.8-27.88-41.15-43.57c-9.44-12-13.37-26.93-17.12-41.63
				C577.08,433.44,576.33,425.33,575.32,416.8z M948.25,470.03c-1.64,2.12-2.13,4.23-2.89,6.19c-1.35,3.46-2.64,6.95-4.53,10.17
				c-9,15.34-19.91,29.34-30.75,43.37c-4.46,5.78-8.91,11.73-14.25,16.63c-5.51,5.05-11.29,9.89-17.41,14.35
				c-15.9,11.58-31.64,23.36-48.41,33.68c-2.21,1.36-1.58,2.03,0.15,3.17c3.58,2.36,6.56,5.26,7.12,9.85
				c0.32,2.63,1.41,2.86,3.54,1.4c5.53-3.8,11.12-7.53,16.78-11.14c12.43-7.91,23.37-17.52,33.03-28.6
				c3.86-4.43,7.34-9.21,11.41-13.43c12.6-13.1,23.53-27.4,32.87-43.02c7.15-11.96,11.35-24.78,13.44-38.42
				C948.53,473.06,948.94,471.88,948.25,470.03z M725.81,467.43c-1.45,1.2-1.7,2.68-2.21,3.99c-1.74,4.47-3.4,8.94-5.86,13.11
				c-8.85,15.01-19.54,28.7-30.19,42.41c-4.48,5.77-9.05,11.55-14.23,16.68c-6.1,6.04-13.16,11.04-20.07,16.19
				c-14.8,11.05-29.78,21.83-45.48,31.58c-2.13,1.32-2.21,1.97-0.05,3.37c3.48,2.25,6.45,5.06,7,9.52c0.39,3.19,1.7,3.01,3.97,1.44
				c5.53-3.82,11.1-7.57,16.8-11.12c10.04-6.25,18.77-14.06,27.15-22.32c6.08-6,10.77-13.2,16.71-19.31
				c12.5-12.87,23.29-26.98,32.58-42.35c7.4-12.23,11.87-25.34,13.95-39.38C726.05,470.09,726.52,468.9,725.81,467.43z
				 M697.48,697.74c-0.28-0.2-0.56-0.39-0.84-0.59c-4.41,2.77-8.75,5.72-12.45,9.37c-3.25,3.2-8.31,4.33-11.95,1.64
				c-3.48-2.57-7.54-3.68-11.56-4.82c-2.68-0.76-4.35,1.61-6.17,2.95c-1.73,1.26-0.19,2.9,0.52,4.15
				c3.66,6.47,7.56,12.8,11.13,19.32c2.73,4.99,5.04,10.15,2.57,16.09c-0.41,1-0.18,2.4,0.09,3.53c1.7,7,3.93,13.81,6.91,20.4
				c3.31,7.32,6.64,14.71,5.27,23.13c-0.28,1.75,0.18,3.39,1.35,4.7c1.75,1.96,1.84,4.01,0.84,6.32c-1.23,2.84,0.13,3.98,2.87,4.23
				c1.44,0.13,3.08-0.53,4.35,0.72c-0.45,0.79-1.08,0.89-1.64,0.81c-4.07-0.53-4.96,1.8-4.76,5.17c0.05,0.84-0.02,1.68,0,2.52
				c0.1,3.67,2.37,4.74,8.08,4.26c3.9-0.33,2.65-2.73,2.35-4.91c-0.24-1.74-1.64-4.31-0.2-5.06c2.45-1.28,1.36-2.6,0.99-4.03
				c-0.48-1.85-1.15-3.65-1.7-5.47c-0.31-1.04-0.52-2.9,0.53-2.75c4.15,0.6,1.34-2.26,1.22-2.77c-0.84-3.7-3.96-6.3-5.26-9.74
				c-5.53-14.61-7.72-29.62-4.64-45.14c0.79-4,1.36-8.07,2.51-11.96c1.71-5.82,1.78-11.98,4.49-17.62
				C694.58,707.6,695.82,702.57,697.48,697.74z M430.76,701.66c-1.97,5.21-1.48,7.74,1.47,11.33c5.44,6.62,9.04,14.01,9.33,22.79
				c0.16,5.02,0.53,10.01-0.07,15.06c-0.9,7.59,4.23,12.82,8.26,18.15c7.08,9.36,11.25,19.66,12.25,31.29
				c0.23,2.65,0.72,5.12,2.12,7.5c2.79,4.73,5.52,9.55,4.61,15.46c-0.18,1.17,0.23,2.61,1.48,3.05c3.01,1.05,6.16,0.77,9.21,0.18
				c1.41-0.27,1.09-1.7,0.75-2.72c-0.56-1.71-1.3-3.35-1.87-5.06c-0.24-0.73-0.76-1.79,0.42-2.1c0.96-0.25,0.95,0.82,1.14,1.46
				c0.14,0.46,0.14,1,0.39,1.38c0.97,1.47,0.81,4.92,2.74,4.18c1.84-0.71-0.11-3.35-0.85-4.96c-1.45-3.15-2.39-7.65-7.54-3.88
				c-0.49,0.36-1.56,0.33-1.79-0.56c-0.25-0.96,0.7-1,1.33-1.29c2.38-1.09,2.89-3.06,2.19-5.37c-0.59-1.95-1.31-3.86-2.09-5.74
				c-5.54-13.33-8.06-27.55-12.31-41.26c-0.46-1.47,0.74-4.19-2.65-3.98c-0.77,0.05-0.43-1.18-0.13-1.8
				c0.68-1.4,1.46-2.75,2.16-4.14c1.88-3.72,4.29-7.22,4.35-11.66c0.06-4.07,0.23-8.15,0.56-12.21c0.18-2.19-0.53-3.36-2.66-3.92
				c-3.36-0.89-6.62-2.24-10.02-2.86c-6.17-1.13-10.55-4.79-14.46-9.27C436.43,707.69,433.04,705.4,430.76,701.66z M561.5,822.66
				c1.12-3.39,0.61-6.13-0.95-8.53c-1.49-2.3-2.37-4.7-2.38-7.36c-0.03-8.86-2.89-16.88-7.18-24.44
				c-4.44-7.82-9.07-15.52-13.72-23.21c-0.93-1.54-1.07-2.98-1.04-4.73c0.2-9.97,2.85-19.4,5.96-28.75
				c0.31-0.92,1.43-2.19,0.14-2.87c-1.21-0.64-2.65-0.09-3.38,1.24c-5.05,9.24-10.97,18.03-14.52,28.06
				c-1.55,4.37-1.96,8.33,1.28,12.39c5.78,7.22,10.06,15.41,14.27,23.61c3,5.84,6.12,11.64,4.57,18.69
				c-0.7,3.16,1.43,4.19,4.68,3.74c-3.53,3.1-3.53,3.1-3.5,8.68c0.02,4.4,0.74,5.19,5.11,5.52c0.95,0.07,1.92,0.04,2.88,0.03
				c4.52-0.02,4.58-0.14,4.45-4.66c-0.06-2.13-1.31-4.25-0.19-7.33C559.54,816.31,559.22,819.61,561.5,822.66z M719.18,570.59
				c4.15-0.24,6.98-3.08,10.68-3.3c1.28-0.08,2.86-0.21,3.39-1.62c0.55-1.47-0.78-2.4-1.66-3.33c-9.66-10.3-17.79-21.68-24.01-34.37
				c-1.26-2.57-2.14-2.27-3.62-0.22c-6.12,8.45-12.37,16.8-19.9,24.09c-1.56,1.51-1.73,2.47,0.36,3.81
				c9.05,5.8,18.8,10.03,28.96,13.4C715.42,569.73,717.54,570.16,719.18,570.59z M560.57,711.25c0.56,0.39,0.9,0.74,1.32,0.9
				c12.96,4.69,26.3,7.02,40.11,6.8c3.74-0.06,4.9-1.97,5.21-5.34c0.75-7.92,0.23-15.77-0.72-23.62c-0.54-4.43-2.41-5.84-6.45-3.81
				c-5.96,3.01-11.52,2.58-17.1-0.56c-1.85-1.04-2.76-0.57-2.67,1.47c0.19,4.33-2.14,8.39-1.26,12.78c0.13,0.65-0.24,1.1-0.76,1.49
				c-3.03,2.31-5.85,4.86-9.9,5.5C565.39,707.34,562.9,709.05,560.57,711.25z M716.33,671.09c-0.69,3.93-1.14,7.74-1.55,11.49
				c-0.73,6.64-4.61,9.66-10.55,10.91c-2.31,0.49-3.77,1.64-4.73,3.87c-3.41,7.95-5.65,16.28-8.13,24.54
				c-0.75,2.49,0.17,3.68,2.61,3.86c3.46,0.25,6.91,0.46,10.36-0.37c5.37-1.29,10.54-3.25,15.84-4.73c3.09-0.86,3.95-2.28,3.28-5.38
				c-1.91-8.79-2.99-17.61-0.74-26.59C724.48,681.72,724.3,675.17,716.33,671.09z M736.81,563.06c0.58-0.33,1.47-0.71,2.2-1.29
				c2.25-1.79,4.34-3.8,6.67-5.47c2.65-1.9,2.54-3.35,0.2-5.59c-9.31-8.92-17.31-18.92-23.99-29.97c-1.61-2.66-3.49-5.16-5.26-7.72
				c-1.05-1.53-1.89-2.02-2.96,0.16c-1.1,2.25-2.45,4.43-4.02,6.38c-1.77,2.2-1.68,4.18-0.49,6.59c2.18,4.42,5.02,8.45,7.4,12.72
				c4.66,8.39,10.95,15.42,17.27,22.47C734.55,562.12,735.28,562.97,736.81,563.06z M525.09,710.2c4.17,3.8,8.39,7.3,13.68,9.25
				c2.59,0.96,4.61,0.25,6.91-1.41c8.11-5.86,15.86-12.41,25.92-14.96c1.88-0.48,3.34-1.88,3.9-3.91c0.64-2.31,1.42-4.59,1.82-6.94
				c1.12-6.55,1.06-6.56-5.47-6.83c-0.24-0.01-0.49,0.01-0.71-0.07c-2.77-0.97-4.09,0.53-4.67,2.9c-0.54,2.24-2.1,3.31-3.95,4.31
				c-5.79,3.13-11.86,5.78-17.15,9.76C539.39,706.82,533.36,711.04,525.09,710.2z M745.49,713.58c5.13,4.03,9.67,8.83,16.58,9.67
				c1.1,0.13,2.13-0.31,2.93-1.13c3.32-3.38,7.59-5.42,11.41-8.1c4.7-3.3,9.65-6.23,15.38-7.61c2.18-0.53,3.79-2.14,4.41-4.38
				c0.66-2.42,1.29-4.88,1.59-7.36c0.72-5.89,0.64-5.9-5.3-6.02c-0.48-0.01-0.98-0.01-1.43-0.14c-2.26-0.63-3.51,0.55-4.01,2.49
				c-0.66,2.59-2.41,3.94-4.63,5.11c-5.83,3.07-11.9,5.75-17.15,9.8C759.5,710.38,753.54,714.23,745.49,713.58z M662.94,700.66
				c-0.04,0.3-0.07,0.6-0.11,0.89c4.83,0.5,8.71,3.2,12.9,5.18c1.79,0.85,3.08,0.11,4.21-0.96c3.24-3.08,7.2-5.13,10.81-7.66
				c5.01-3.49,10.18-6.7,16.24-8.21c2.33-0.58,3.9-2.3,4.56-4.67c0.48-1.72,0.85-3.48,1.26-5.23c1.62-6.96,1.19-7.28-5.69-8.02
				c-3.11-0.34-4.5,0.74-5.16,3.41c-0.45,1.83-1.66,2.9-3.25,3.57c-11,4.62-19.92,12.76-30.52,18.06
				C666.31,697.98,664.68,699.44,662.94,700.66z M702.02,569.64c0.12-0.83-0.28-1.42-1.14-1.87c-6.36-3.33-12.71-6.69-19.05-10.06
				c-1.17-0.62-2.23-0.83-3.25,0.23c-3.73,3.88-7.45,7.78-11.21,11.63c-1.64,1.68-1.16,2.76,0.63,3.95
				c6.49,4.31,12.76,8.92,18.61,14.06c2.61,2.29,4.52,1.9,6.62-0.63c4.06-4.89,5.38-11.16,8.56-16.48
				C701.91,570.26,701.93,570,702.02,569.64z M759.82,581.91c5.04-0.21,10.23,1.15,15.5,1.21c2.81,0.03,3.11,1.36,2.01,3.4
				c-1.49,2.74-3.18,5.41-5.42,7.58c-1.81,1.75-1.39,2.84,0.26,4.34c3.98,3.63,7.89,7.35,11.7,11.17c1.87,1.88,3.37,1.75,5.22,0.06
				c4.25-3.9,6.03-9.43,9.38-13.92c0.65-0.87,0.53-1.65-0.55-2.37c-9.96-6.64-20.14-12.99-28.88-21.3
				c-0.82-0.78-1.96-1.39-2.89-0.44c-2.57,2.62-6.51,3.12-8.91,5.93c-1.16,1.37-4.13,1.88-3.35,4c0.65,1.78,3.03-0.16,4.61,0.34
				C758.8,582,759.19,581.91,759.82,581.91z M637.57,712.38c4.34-0.86,7.36-2.42,10.18-4.44c3.51-2.5,6.93-5.13,10.52-7.5
				c11.8-7.76,24.31-14.31,36.65-21.16c2.29-1.27,4.82-2.24,5.79-5.05c1.22-3.52,2.99-6.77,4.71-10.06c0.99-1.9,1.82-3.92,2.47-5.97
				c0.92-2.89-1.41-4.21-3.28-5.28c-2.07-1.19-2.52,1.14-3.28,2.3c-1.51,2.3-2.55,5.1-4.85,6.63c-4.68,3.1-6.38,8.1-9.12,12.53
				c-3.3,5.32-6.47,11.06-12.9,13.49c-3.83,1.45-7.36,3.44-10.88,5.51c-2.99,1.75-6.03,4.04-9.29,4.56
				C645.85,699.27,642.09,705.43,637.57,712.38z M539.79,742.39c0.13,0.6,0.07,1.42,0.42,1.67c0.87,0.63,1.51-0.24,2.16-0.7
				c3.71-2.63,6.57-6.47,10.75-8.34c7.09-3.18,10.74-9.27,14.24-15.6c0.66-1.19,0.7-2.07-0.76-2.92c-7.09-4.09-16.01-2.1-19.92,5.16
				C543.2,728.09,541.81,735.37,539.79,742.39z M616.53,609.18c1.1,0.86,1.66,0.5,2.19,0.3c5.58-2.08,11.06-4.5,16.86-5.9
				c7.77-1.89,13.68-5.93,16.7-13.61c0.17-0.44,0.45-0.85,0.71-1.25c1.98-3.08,4.49-5.04,8.45-5.19c3.2-0.12,6.38-1.01,9.56-1.58
				c0.68-0.12,1.59-0.08,1.8-0.9c0.21-0.81-0.57-1.23-1.13-1.64c-1.74-1.28-3.58-2.42-5.23-3.8c-1.94-1.62-3.41-1.41-5.26,0.33
				c-5.84,5.49-11.44,11.27-18.19,15.7c-5.67,3.72-10.38,8.76-16.95,11.3C622.63,604.25,619.78,606.98,616.53,609.18z
				 M492.62,818.55c-0.04,0-0.08,0-0.12,0c0,1.44,0.06,2.88-0.01,4.31c-0.12,2.49,1.38,3.15,3.43,2.98
				c2.13-0.17,1.86-1.79,1.65-3.25c-0.21-1.42-0.56-2.83-0.67-4.25c-0.08-1.12-0.68-2.97,0.66-3.2c2.99-0.51,2.14-2.34,1.75-3.97
				c-0.52-2.12-0.03-4.11,0.66-5.98c2.82-7.64,4.93-15.58,8.12-23c2.17-5.04,0.57-9.53,0.82-14.25c0.03-0.59-0.53-1.63-0.98-1.73
				c-1.07-0.25-1.27,0.87-1.51,1.63c-1.25,4-2.24,8.09-3.7,12.01c-3.24,8.72-4.33,18.17-9.13,26.35c-0.29,0.49-0.37,1.13-0.45,1.71
				c-0.35,2.47,3.85,0.19,2.96,2.64c-0.42,1.15-3.35,0.46-3.23,2.99C492.96,815.2,492.72,816.88,492.62,818.55z M701.41,449.42
				c-5.16,18.44-4.4,36.08-0.49,53.76c0.36,1.65,1.38,1.59,2.17,0.33c2.88-4.54,5.91-8.8,3.76-14.93
				c-3.86-10.99-4.46-22.53-4.51-34.09C702.33,453.1,702.78,451.64,701.41,449.42z M728.79,769.28c-0.31,0.03-0.63,0.06-0.94,0.09
				c-0.17,0.43-0.33,0.86-0.5,1.3c-3.39,8.98-3.97,18.98-10.22,26.94c-1.78,2.27-0.73,4.22,2.11,5.2c0.66,0.23,1.6,0.26,1.41,1.2
				c-0.08,0.38-0.88,0.72-1.41,0.88c-3.46,1.05-5.16,3.61-5.1,7.28c0.06,3.13,1.81,3.65,4.46,3.65c2.53-0.01,4.2-0.43,4.02-3.5
				c-0.1-1.64-0.42-4.03,0.48-4.84c2.79-2.53,2.01-5.29,1.43-8.15c-0.35-1.71-0.16-3.32,0.4-4.94c1.33-3.84,2.82-7.64,3.91-11.55
				C730.11,778.32,729.62,773.77,728.79,769.28z M742.94,749.27c0.31,0.1,0.62,0.2,0.94,0.3c4.32-7.55,8.63-15.1,12.96-22.64
				c0.9-1.56,0.14-2.41-1.16-3.17c-2.58-1.51-5.18-2.98-7.66-4.64c-2.31-1.54-3.27-1.28-3.41,1.71c-0.31,6.32-0.98,12.63-1.26,18.95
				C743.2,742.95,742.4,746.11,742.94,749.27z M522.27,746.06c0.37,0.15,0.73,0.29,1.1,0.44c4.36-7.63,8.72-15.25,13.08-22.89
				c0.75-1.31,0.29-2.28-0.96-2.96c-3.03-1.65-6.16-3.12-8.89-5.3c-1.24-0.99-2.22-0.69-2.3,1.14c-0.08,1.91-0.22,3.82-0.35,5.72
				C523.39,730.16,522.83,738.11,522.27,746.06z M673.44,591.56c-1.62,0-2.34-0.02-3.05,0.01c-0.35,0.02-0.71,0.11-1.05,0.22
				c-1.13,0.38-1.65,1.15-0.84,2.16c4.3,5.4,8.7,10.66,16.69,9.81c1.17-0.13,2.59,0.14,3.13-1.2c0.6-1.48,0-3.03-1.1-3.92
				C682.91,595.13,678.91,590.83,673.44,591.56z M749.65,597.97c8.3,3,17.14-0.54,21.14-8.02c1.09-2.04-0.23-1.83-1.52-1.94
				C760.72,587.29,755.65,593.12,749.65,597.97z M768.92,611.54c-0.3,0.09-2.88-0.56-1.57,1.78c2.96,5.27,6.62,10.01,13.58,10.07
				c1.03,0.01,2.28,0.42,2.87-0.81c0.5-1.04,0.22-2.26-0.46-3.05C779.73,615.33,776.04,611.19,768.92,611.54z M559.25,620.55
				c2.11,0.16,2.57-0.99,2.04-2.91c-1.23-4.47-10.82-10.15-15.38-9.15c-1.19,0.26-1.63,0.72-1.17,1.97
				C546.69,615.72,553.67,620.65,559.25,620.55z M509.19,784.77c-2.31,7.03-6.49,13.55-4.7,21.54c0.5,2.24,1.79,2.82,3.34,2.93
				c1.71,0.11,2.66-1.03,2.71-2.99C510.68,799.08,510.48,791.94,509.19,784.77z M614.89,621.43c8.22,3.08,12.98,1.91,18.59-4.13
				c0.55-0.59,1.51-1.14,1.12-2.06c-0.38-0.88-1.45-0.61-2.26-0.75C625.33,613.31,620.78,618.12,614.89,621.43z M837.38,624.3
				c7.45,3.26,13.14,1.74,17.96-3.53c0.71-0.77,2.07-1.37,1.74-2.52c-0.36-1.27-1.83-0.77-2.83-0.91
				C847.4,616.38,843.06,621.19,837.38,624.3z M687.75,762.25c-0.12,0.68-0.26,1.12-0.25,1.56c0.15,11.79,4.05,22.48,9.57,32.7
				c0.93,1.73,2.41,1.09,3.43,0.64c1.69-0.74,0.22-1.88-0.24-2.53c-5.94-8.4-8.75-17.99-10.87-27.86
				C689.06,765.31,689.03,763.69,687.75,762.25z M572.2,683.22c1.73-0.35,3.6-0.72,5.46-1.12c0.84-0.18,1.89-0.53,1.61-1.53
				c-0.84-2.93-0.26-6.23-2.47-8.81c-1.28-1.49-2.19-1.76-3.07,0.26c-1.24,2.84-2.45,5.68-3.77,8.48
				C568.84,682.91,570.28,683.14,572.2,683.22z M761.35,585.58c-6.48-0.22-11.76,2.88-16.97,6.1c-0.43,0.26-0.66,1-0.79,1.56
				c-0.3,1.32-0.35,2.77,0.85,3.59c1.08,0.74,1.97-0.35,2.81-0.96C751.95,592.45,756.65,589.01,761.35,585.58z M708.24,669.89
				c1.47-0.31,3.46-0.7,5.43-1.15c0.99-0.23,1.82-0.67,1.59-1.94c-0.5-2.7-0.96-5.38-3.16-7.41c-1.51-1.39-2.4-1.2-3.18,0.62
				c-1,2.3-1.98,4.61-3.13,6.83C704.6,669.11,705.4,669.91,708.24,669.89z M511.33,816.15c0,0.43-0.06-0.17,0.01-0.76
				c0.38-3.19-1.21-4.61-4.24-4.71c-3.52-0.11-3.12,2.39-3.09,4.65c0.01,1.07,0.05,2.14,0.01,3.21c-0.08,2.01,0.76,3.02,2.84,3.31
				C511.08,822.44,511.09,822.49,511.33,816.15z M760.11,602.42c4.03,1.07,6.9,2.46,9.82,3.78c1.62,0.73,4.05,0.83,5.01-0.47
				c1.13-1.53-1.26-2.4-2.16-3.49c-0.9-1.09-2.09-1.93-3.13-2.91c-1.21-1.15-2.42-1.26-3.84-0.3
				C764.25,600.07,762.59,600.95,760.11,602.42z M850.44,614.23c-6.69-1.24-11.49,1.81-16.46,3.88c-1.66,0.69-2.02,2.89-1.02,4.4
				c1.11,1.68,2.29-0.07,3.29-0.61C840.77,619.49,844.97,616.52,850.44,614.23z M627.1,611.38c-5.97-0.84-10.9,2.14-15.98,4.31
				c-1.38,0.59-1.5,2.63-0.69,3.88c1.14,1.75,2.29,0.04,3.29-0.5C618.23,616.62,622.47,613.67,627.1,611.38z M521.52,777.6
				c0.37,0.11,0.73,0.22,1.1,0.33c1.02-2.76,2.14-5.49,3.04-8.29c0.62-1.91-0.46-3.48-1.58-4.92c-1.06-1.37-1.89-1.37-2.33,0.49
				C520.78,769.35,521.6,773.47,521.52,777.6z M700.39,811.22c0.42-2.29,0.15-3.96-0.33-5.66c-0.37-1.3-0.6-2.64,0.97-3.4
				c0.69-0.33,1.85-0.18,1.56-1.46c-0.19-0.86-0.96-1.03-1.71-0.9c-0.97,0.17-2.48-0.49-2.72,1
				C697.61,804.28,697.12,807.83,700.39,811.22z M756.32,602.55c-3.18-0.45-5.6-0.82-8.03-1.13c-1.15-0.15-2.34-0.06-2.09,1.56
				c0.19,1.27,0.48,3.09,2.21,2.63C750.85,604.97,753.46,604.55,756.32,602.55z M699.52,613.45c-0.27,2.92,0.66,4.37,1.63,5.66
				c1.56,2.08,5.24,2.28,6.71,0.56c0.41-0.48,0.72-1.02,0.44-1.62c-0.11-0.24-0.69-0.53-0.85-0.43
				C703.44,619.93,701.64,617.09,699.52,613.45z M569.88,630.05c-0.57,2.57,0.17,3.98,0.95,5.25c1.26,2.06,4.49,2.61,5.87,1.12
				c0.28-0.31,0.41-0.82,0.45-1.25c0.01-0.13-0.6-0.52-0.78-0.44C572.53,636.33,571.43,633.44,569.88,630.05z M792.36,632.93
				c-0.57,2.57,0.17,3.98,0.95,5.25c1.26,2.06,4.49,2.61,5.87,1.12c0.28-0.31,0.41-0.82,0.45-1.25c0.01-0.13-0.6-0.52-0.78-0.44
				C795.01,639.21,793.91,636.32,792.36,632.93z M501.93,814.69c0.12-3.12,1.62-6.24,0.51-10.25
				C500.75,808.37,500.8,811.5,501.93,814.69z M726.04,672.92c-3.08-1.29-4.84-4.12-7.21-6.8
				C719.61,670.84,720,671.21,726.04,672.92z M776.26,609.71c2.07,1.48,3.27,3.1,5.35,3.61
				C781.61,609.59,780.59,608.8,776.26,609.71z M554.22,606.7c1.3,1.82,2.89,2.97,4.89,3.78
				C559.19,606.77,558.16,605.95,554.22,606.7z M587.85,684.5c-2.86-1.4-3.92-3.99-5.82-6.31
				C582.48,683.2,584.04,684.97,587.85,684.5z M804.27,680.55c0.91,5.89,2.44,7.51,5.83,6.62
				C807.35,685.95,806.39,683.39,804.27,680.55z M696.46,812.39c-0.2,2.83,0.28,4.94,1.71,6.79
				C698.32,816.87,698.59,814.53,696.46,812.39z M703.56,806.88c-0.03,1.95-0.8,3.53,0.56,4.82c0.12,0.11,0.84-0.11,0.85-0.22
				C705.15,809.93,705.03,808.43,703.56,806.88z M499.83,819.27c-1.01,1.95-0.92,3.24,0.43,4.88
				C500.96,822.4,500.73,821.14,499.83,819.27z M725.14,813.66c0.56-1.67,0.46-2.76-0.79-4.45
				C724.41,811.04,723.89,812.14,725.14,813.66z M685.49,592.37c-0.86-1.38-1.66-1.72-2.86-1.41
				C683.09,592.03,683.83,592.42,685.49,592.37z"/>
			<path d="M1070.47,568.42c1.93,1.3,0.42,2.5-0.2,3.59c-5.76,10.16-12.84,19.4-20.2,28.41c-1.8,2.21-2.54,4.17-1.17,6.8
				c1.22,2.34-0.15,4.46-1.03,6.5c-2.07,4.82-4.53,9.4-5.17,14.82c-0.47,3.95-0.51,7.58,1.23,11.17
				c9.24,19.02,11.78,39.5,11.22,60.17c-0.36,13.59-3.39,27.1-5.06,40.67c-1.05,8.55-2.6,17.04-1.57,25.78
				c0.75,6.39-2.07,9.64-9.48,11.68c-2.47,0.68-3.12,1.58-2.32,3.91c0.86,2.49,1.47,5.07,2.32,7.56c2.03,5.96,2.48,6.19,8.83,5.15
				c5.48-0.89,10.6-2.8,15.56-5.27c1.31-0.65,2.91-2.75,4.33-0.65c1.23,1.82,1.33,4.78-0.17,6.03c-1.88,1.56-2.46,3.58-3.54,5.52
				c-0.89-0.64-1.86-1.07-1.83-2.14c0.03-1.23,1.28-3.32-0.07-3.46c-1.95-0.19-3.94-1.21-5.92-0.55c-4.56,1.51-9.21,2.35-14.02,2.56
				c-1.99,0.09-2.62,2.26-3.82,3.52c-0.77,0.81-1.17,1.96-1.99,3.42c-0.79-3.05,0.99-4.44,2.41-5.89c1.02-1.03,1.62-1.85,0.87-3.39
				c-3.47-7.09-5.09-14.72-6.08-22.48c-0.37-2.92-1.7-3.62-4.35-3.04c-4.92,1.09-8.98,3.91-13.26,6.32
				c-1.35,0.76-1.24,1.94-0.75,3.13c2.33,5.6,4.67,11.19,9.68,15.1c1.21,0.95,1.2,2.58,1.6,3.93c2.69,9.09,2.67,9.09,8.18,15.59
				c-1.25,0.96-1.82-0.78-2.97-0.69c-0.08,0.24-0.31,0.56-0.27,0.84c0.25,1.65,0.38,3.35,0.89,4.93c1.27,3.92,4.15,5.01,7.89,3.12
				c5.24-2.66,8.74-7.43,13.24-11c2.7-2.14,5.19-4.55,7.98-6.64c-1.42,2.91-4.12,4.65-6.33,6.81c-2.57,2.51-5.53,4.65-7.92,7.31
				c-2.98,3.32-6.75,4.83-10.83,5.99c-1.95,0.56-3.2,0-3.98-1.93c-1-2.45-1.94-4.91-2.3-7.55c-1.49-10.81-7.2-19.7-13-28.55
				c-0.86-1.32-1.74-1.41-2.96-0.53c-1.41,1.01-2.17,2.43-3.06,3.88c-4.35,7.09-1.28,13.3,2.01,19.53c0.56,1.06,1.23,2.07,1.76,3.14
				c2.31,4.7,1.82,6.54-2.51,9.54c-1.81,1.25-3.04,3.34-5.78,3.18c-3.8-0.23-7.33-2.62-8.53-7.04c-1.19-4.36-3.69-7.73-6.63-10.93
				c-2.92-3.18-3.2-5.69-1.14-9.44c0.06-0.11,0.1-0.22,0.18-0.31c5.01-5.29,5.11-12,5.44-18.66c0.75-15.03-1.15-29.89-2.59-44.8
				c-1.34-13.82-3.65-27.59-2.8-41.58c1.17-19.42,7.78-36.95,18.23-53.14c2.35-3.64,1.98-7.36,0.13-10.48
				c-4.36-7.34-8.4-14.8-11.9-22.57c-1.14-2.52-2.69-4.22-5.52-5.13c-8.38-2.7-14.41-8.52-20.16-15.02
				c-7.2-8.15-7.18-9.08-0.9-17.55c4.8-6.49,9.44-13,16.6-17.14c1.07-0.62,0.91-1.53,0.98-2.48c0.16-2.39,0.37-4.78,0.57-7.16
				c0.08-0.96,0.08-2.17,1.06-2.53c3.81-1.42,2.94-4.34,2.54-7.19c-1.9-13.53-3.88-27.06-5.51-40.62c-0.21-1.78-2.65-3.28-0.95-5.08
				c1.46-1.54,3.65-0.49,5.5-0.72c15.27-1.91,30.6-2.44,45.98-1.68c3.28,0.16,4.13,0.55,3.71,4.38c-1.3,11.92-1.77,23.92-2.56,35.89
				c-0.4,6.1-0.77,12.21-1.24,18.31c-0.12,1.53,0.27,2.5,1.4,3.7c4.57,4.85,9.32,9.54,11.74,16.12c1.03,2.79,3.18,5.4,5.65,7.33
				c2.32,1.81,1.92,3.23,0.07,4.91c-3.55,3.24-7.02,6.55-9.98,10.35c-0.87,1.12-2.02,1.54-3.45,1.58c-1.91,0.04-3.82,0.28-5.72,0.46
				c-1.16,0.11-2.76-0.13-3.06,1.28c-0.3,1.42,0.89,2.61,2.17,2.95c3.23,0.84,2.55,4.33,4.62,6.3c1.48-2.81,0.08-5.83,0.96-8.58
				c1.58,0.52,0.95,1.79,1.03,2.73c0.11,1.31-0.12,2.66,0.08,3.95c0.44,2.82,1.78,5.74,4.19,6.71c1.79,0.73,2.87-2.4,4.1-3.9
				c6.37-7.81,12.18-16.05,17.65-24.52c0.93-1.43,1.56-2.96,2.05-4.58C1070.56,568.34,1070.47,568.42,1070.47,568.42z
				 M1030.97,582.72c1.81-3.09,3.32-6.29,4.01-9.84c0.36-1.83,0.33-3.6-0.74-5.18c-0.86-1.26-1.83-1.77-2.39,0.24
				c-0.5,1.84-1.23,3.28-4.02,2.84c1.77-1.72,1.63-2.93,0.22-4.66c-1.33-1.63-1.95-4-0.7-6.68c2.08,4.1,3.23,0.44,5.24,0.52
				c-1.64-2.24-4.43-0.06-4.74-1.9c-0.36-2.14,2.6-0.61,3.5-1.86c-2.97-3.69-8.96-3.62-13.61,0.32c1.6,0.09,2.98,0.11,4.36,0.26
				c0.76,0.09,1.35,0.58,1.24,1.45c-0.11,0.78-0.8,0.76-1.39,0.74c-0.6-0.02-1.2-0.17-1.79-0.13c-5.59,0.33-8.92,2.27-9.61,5.63
				c-0.41,1.98-0.71,3.99-1.05,5.98c-0.12,0.66,0.2,1.56-0.64,1.87c-0.92,0.34-1.16-0.57-1.53-1.13c-0.71-1.06-1.65-2.09-2.83-1.03
				c-0.92,0.82-0.31,2.65,0.46,2.8c4.92,0.96,6.66,6.12,10.86,7.92c0.22,0.09,0.46,0.15,0.69,0.22c4.77,1.39,9.66,1.64,14.59,1.53
				c-0.64,1.35-1.88,1.25-3.08,1.31c-0.9,0.05-2.13-0.25-2.26,1.12c-0.1,1.04-0.2,2.37,0.33,3.12c0.81,1.14,2.05,0.15,2.86-0.36
				c4.29-2.72,8.97-3.76,13.97-3.57c1.07,0.04,1.76-0.49,2.36-1.33c2.53-3.52,5.67-6.49,8.89-9.34c1.47-1.3,1.62-2.15,0.29-3.76
				c-2.54-3.08-5.28-5.88-6.83-9.9c-2-5.16-6.47-8.85-10.35-13.2c-1.07,2.6-0.54,4.41,0.39,6.32c2.36,4.84,3.17,9.88,0.37,14.77
				c-1.05,1.83-1.55,3.64-1.92,5.63C1035.44,577.07,1034.75,580.76,1030.97,582.72z M1045.86,755.97c0.31-0.01,0.63-0.03,0.94-0.04
				c0.21-1.13,0.46-2.25,0.61-3.38c1.42-10.94,2.96-21.87,4.18-32.84c0.62-5.59,2.26-11.12,2.4-16.64
				c0.36-14.53-1.04-28.98-4.15-43.23c-1.2-5.5-2.91-10.42-9.73-10.85c-0.56-0.04-1.13-0.38-1.65-0.66
				c-9.05-4.86-18.78-6.22-28.88-5.64c-1.1,0.06-2.52,0.18-2.7,1.35c-0.4,2.71-2.71,4.14-3.78,6.38
				c-4.36,9.12-7.53,18.65-9.68,28.51c-3.36,15.42-1.76,30.85,0.61,46.16c2.92,18.8,4.12,37.63,2.83,56.62
				c-0.05,0.79-0.7,1.73,0.26,2.28c0.87,0.5,1.56-0.31,2.26-0.72c6.54-3.78,13.2-7.37,19.59-11.4c8.15-5.15,16.21-6.21,24.54-0.63
				c2.18,1.46,3,0.67,3.62-1.7c0.95-3.58-0.82-6.58-1.6-9.78c-3.67-15.06-5.21-30.49-7.98-45.7c-0.28-1.53-0.5-3.08-0.7-4.62
				c-0.2-1.51-0.36-3.03-0.53-4.55C1040.75,721.76,1042.33,739.05,1045.86,755.97z M998.55,494.44c-2.15,0.39-4.3,0.91-6.47,1.13
				c-2.08,0.21-2.94,0.9-2.61,3.18c2.15,14.96,4.22,29.92,6.23,44.9c0.24,1.82,0.98,2.34,2.74,2.43
				c11.15,0.58,22.29,0.68,33.44,0.15c2.22-0.11,3.16-0.75,3.3-3.07c0.93-15.2,1.93-30.4,3.03-45.59c0.19-2.59-0.74-3.37-3.18-3.4
				c-1.93-0.02-4.08,0.41-6.24-1c2.07-1.38,3.8-0.95,5.39-0.76c2.99,0.36,4.52-0.15,4.74-3.77c0.25-3.97-2.11-3.52-4.45-3.62
				c-14.65-0.66-29.24,0.07-43.8,1.77c-1.97,0.23-2.93,0.83-2.36,2.9c0.5,1.83-0.51,4.67,3.24,4.22
				C993.81,493.64,996.17,493.26,998.55,494.44z M1004.14,601.07c1.58,1.77,0.03,4.53,1.79,5.13c1.79,0.61,3.06-1.89,4.87-2.42
				c0.23-0.07,0.45-0.16,0.67-0.27c4.87-2.56,10.32-3.82,15.01-6.84c2.24-1.44,2.19-2.43-0.3-3.95c0.14,1.71,0.22,3.22-1.56,3.61
				c-1.45,0.32-2.31-0.5-3.33-1.52c-3.42-3.43-6.8-6.79-6.89-12.09c-0.01-0.52-0.29-0.93-0.84-0.99c-0.78-0.09-1.03,0.53-1.12,1.1
				c-0.12,0.7-0.11,1.43-0.1,2.14c0.11,5.55-0.96,6.19-5.97,3.53c-0.62-0.33-1.21-0.8-1.67-1.33c-2.78-3.15-6.24-3.26-9.85-2.07
				c-1.14,0.38-1.94,0.91-2.67-0.42c-1.38-2.53-3.63-4.05-6.04-5.46c-1.4-0.82-3.23-1.98-2.12-3.93c3.9-6.83,4.49-15.15,9.74-21.37
				c1.35-1.6,1.62-4.08,0.35-5.36c-1.61-1.62-1.41-3.29-1.52-5.05c-0.11-1.69-0.02-3.39-0.02-5.48c-4.08,2.28-3.06,5.99-3.16,8.9
				c-0.09,2.74-1,4.34-2.99,5.98c-6.97,5.75-12.9,12.48-18.15,19.81c-1.59,2.22-1.7,4.59-0.05,6.67
				c5.07,6.4,10.29,13.13,17.99,16.09c7.31,2.81,12.05,7.13,14.43,14.39c0.2,0.63,0.78,1.51,1.28,1.57c0.9,0.12,1.28-0.92,1.74-1.59
				c0.8-1.18,0.79-2.47,0.44-3.8C1003.69,604.54,1003.51,603.01,1004.14,601.07z M1035.65,602.33c0.56,2.86,1.06,5.74,1.72,8.58
				c0.32,1.38,1.11,2.5,2.83,1.82c1.94-0.77,2.91-5.56,1.65-7.35c-1.5-2.13-3.69-3.82-4.22-6.57c-0.2-1.04,0.86-2.8-0.9-2.94
				c-1.84-0.14-2.96,1.34-3.38,3.14c-0.18,0.76,0.17,1.57-0.75,2.21c-7.83,5.46-14.97,11.86-22.95,17.12
				c-1.45,0.95-4.07,1.62-2.28,4.21c1.57,2.28,1.77,6.12,6.57,4.69c8.51-2.54,17.06-2.4,25.13,1.91c1.84,0.98,2.25,0.2,2.6-1.34
				c0.95-4.17-1.46-7.05-3.75-10c-0.63-0.82-2.15-1.07-1.94-2.87c3.37,1.06,4.18,4.32,6.33,6.29c1.84-1.52,2.22-3.77,3.37-5.54
				c3.5-5.39,2.05-10.23-1.51-14.87c-1.14-1.48-3.06-3.08-4.38-2.06c-1.36,1.05,0.55,2.85,1.58,3.75c2.87,2.52,4.13,5.03,1.73,8.63
				c-0.94,1.42-0.8,3.62-3.42,3.3c-2.42-0.3-3.52-1.72-3.88-3.99c-0.39-2.48-0.7-5-1.36-7.42c-0.6-2.23,0.11-3.59,2.38-5
				c-0.79,4.83,6.72,7.9,1.69,13.08C1040.01,607.48,1037.82,604.93,1035.65,602.33z M1007.73,818.24c3.45,2.09,3.4,2.04,5.94,0.09
				c2.28-1.76,0.95-3.85,0.3-5.49c-1.54-3.88-3.36-7.7-5.45-11.31c-1.21-2.09-1.45-3.94-0.75-6.12c1.62-5.01,2.69-10.23,5.68-14.7
				c0.6-0.9,0.87-1.86,0.15-2.64c-0.91-1-1.71,0.09-2.52,0.46c-0.98,0.45-1.97,0.87-2.94,1.33c-3.47,1.65-7.53,2.94-9.65,6.02
				c-2.62,3.8-4.9,7.92-7.3,11.92c-1.23,2.05-1.18,3.84,0.27,5.96c3,4.39,6.97,8.18,8.19,13.78c0.35,1.62,2.58,3.08,4.26,4.09
				c1.2,0.72,2.96,1.81,4.35,0.74C1009.92,821.09,1007.36,819.96,1007.73,818.24z M1041.4,644.78c-1.84-3.91-4.63-7.54-3.75-12.21
				c0.44-2.31-0.6-3.24-2.57-3.9c-7.31-2.42-14.59-2.16-21.9-0.04c-2.01,0.58-2.79,2.28-1.69,3.47c2.2,2.38,0.51,3.8-0.71,5.34
				c-2.07,2.62-1.18,3.3,1.76,3.4c8.69,0.3,17.06,2.17,25.19,5.28c2.5,0.95,4.93,2.33,8.06,2.35c-1.56-5.91-4.86-10.94-5.92-16.78
				C1037.47,636.47,1041.75,640.31,1041.4,644.78z M1009.82,554.03c-3.91-0.2-7-0.21-10.05-0.57c-2.02-0.24-3.32,0.37-3.9,2.21
				c-1.4,4.43-2.66,8.84-0.88,13.54c2.3,6.07,8.18,7.59,12.98,10.48c0.47,0.28,1.36,0.45,1.56-0.22c0.18-0.6-0.05-1.41-0.33-2.03
				c-0.45-1-1.61-0.89-2.46-1.28c-3.22-1.51-4.84-4.28-3.64-7.24C1005.07,564.09,1005.66,558.7,1009.82,554.03z M993.73,558.48
				c-0.94,0.46-1.27,0.51-1.33,0.67c-1.24,3.23-2.22,6.58-3.71,9.69c-2.45,5.1-3.14,9.58,2.82,12.74c0.39,0.21,0.63,0.71,0.91,1.1
				c0.65,0.89,1.51,1.19,2.52,0.81c4.71-1.74,8.34,0.42,11.77,3.25c1.15,0.95,2.59,2.12,3.8,1.25c1.37-0.98,0.55-2.88,0.29-4.38
				c-0.23-1.35-1.37-1.9-2.49-2.35c-3.47-1.36-6.48-3.51-9.65-5.41c-4-2.4-5.58-6.05-5.72-10.48
				C992.86,563.25,992.74,561.11,993.73,558.48z M1015.79,548.1c0-0.02,0-0.05,0-0.07c-5.38,0-10.76-0.04-16.14,0.04
				c-0.96,0.02-2.67-1.03-2.75,1.05c-0.06,1.7,0.94,2.47,2.75,2.48c10.77,0.09,21.53,0.4,32.28-0.55c1.11-0.1,2.68,0.23,2.63-1.6
				c-0.06-2.26-1.89-1.3-2.99-1.32C1026.32,548.05,1021.05,548.1,1015.79,548.1z M1029.51,600.51c-0.57-1.54-1.52-0.65-2.17-0.16
				c-3,2.23-6.53,3.52-9.69,5.45c-4.27,2.61-8.9,4.67-12.45,8.4c-1.33,1.4-1.51,2.58-0.37,4.06c1.2,1.56,2.11,0.19,3.03-0.34
				c7.07-4.1,12.91-9.89,19.66-14.42C1028.55,602.8,1029.12,601.75,1029.51,600.51z M1015.3,582.34c1.37,6.5,5.53,11.72,9.77,12.13
				c-1.14-2.94-1.39-5.88-1.19-8.86c0.09-1.39-0.61-1.92-1.86-2.11C1019.9,583.17,1017.79,582.78,1015.3,582.34z M1027.07,598.38
				c-5.59,2.38-11.01,5.05-16.66,7.23c-3.52,1.35-5.38,4.55-6.91,7.91C1010.34,606.81,1019.76,604.24,1027.07,598.38z
				 M1034.75,771.53c1.28,1.5-0.97,5.11,2.41,5.52c2.03,0.25,4.67-0.58,5.8-2.73c0.71-1.34-4.47-5.02-6.74-4.99
				C1034.84,769.34,1034.7,770.18,1034.75,771.53z M1038.58,560.79c-0.51-2.01-1.05-4.19-1.63-6.37c-0.23-0.89-0.75-1.49-1.78-1.35
				c-1.09,0.15-1.1,1.01-1.27,1.84c-0.46,2.33,0.41,4.5,0.91,6.66c0.39,1.7,0.01,4.89,1.84,4.71
				C1038.61,566.09,1037.95,562.9,1038.58,560.79z M1017.13,554.36c-4.21-1.21-6.03,1.01-7.75,3.29c-2.18,2.88-3.29,7.54-2.28,9.46
				C1009.83,562.53,1011.27,557.07,1017.13,554.36z M1061.96,792.65c1.63,0,2.39,3.52,4.39,1c0.88-1.12,1.21-3.18,0.43-3.53
				C1064.71,789.2,1063.76,791.87,1061.96,792.65z M1035.36,591.79c-3.12,0.95-3.62,3.4-4.87,5.14c-0.35,0.49-0.15,1.25,0.43,1.55
				c0.72,0.39,1.01-0.25,1.29-0.78C1033.15,595.93,1034.09,594.17,1035.36,591.79z M1031.15,588.4c-0.51,0.45-1.94,0.18-1.79,1.49
				c0.11,0.99,0.61,2.25,1.72,2.43c1.23,0.19,1.86-0.87,1.93-2C1033.08,589.27,1032.54,588.53,1031.15,588.4z M1033.06,564.19
				c-0.06-0.66-0.34-1.17-1.06-1.14c-0.54,0.03-0.8,0.48-0.75,1.01c0.06,0.67,0.5,1.07,1.14,1.11
				C1033.06,565.22,1033.05,564.66,1033.06,564.19z"/>
			<path d="M262.16,774.9c-3.34-4.23-5.5-8.68-7.79-13.04c0.26-0.17,0.51-0.35,0.77-0.52c1.49,2.52,2.95,5.06,4.5,7.54
				c0.6,0.96,0.88,2.67,2.21,2.5c1.27-0.16,1.29-1.86,1.71-2.94c0.38-1,0.7-2.05,0.86-3.11c0.79-5.41,0.77-5.45-4.67-4.81
				c-1.88,0.22-3.52-0.44-5.26-0.88c-6.58-1.69-13.01-4.24-20.08-3.07c-2.26,0.38-2.96,1.16-2.99,3.42
				c-0.1,7.9,4.94,13.07,9.74,18.2c2.39,2.55,4.71,5.06,6.5,8.04c1.36,2.26,3.13,4.16,5.39,5.68c-6.12,3.27-10.31,8.33-14.55,13.27
				c-1.55,1.8,0.56,7.44,3.14,9.99c1.21,1.2,3.55,1.24,3.68,3.56c0.01,0.13,0.32,0.28,0.52,0.35c0.72,0.23,0.75-2.62,1.66-0.55
				c0.54,1.25-1.06,2.04-2.23,2.3c-3.98,0.89-7.97,0.78-11.9-0.33c-0.32-0.09-0.69-0.32-0.86-0.59c-2.22-3.4-4.45-6.79-6.61-10.23
				c-1.17-1.87-0.8-3.38,0.76-5.1c5.65-6.2,11.08-12.59,14.71-20.29c1-2.11,0.58-3.37-0.93-5.02c-4.62-5.04-8.01-10.55-10.37-17.29
				c-3.03-8.67-0.99-17.14-1.83-25.63c-0.25-2.5-0.2-5.02-0.39-7.53c-0.08-1.08-0.39-2.53-1.8-2.08c-1.5,0.48-3.85-0.66-4.4,1.95
				c-0.2,0.94-0.22,1.96-0.62,2.8c-2.81,5.95,0.3,10.06,4.27,13.88c0.9,0.86,1.5,1.71,0.63,2.75c-1.14,1.37-2.79,2.39-4.42,1.24
				c-3.71-2.61-2.96-0.07-2.68,2.12c0.12,0.95,0.29,1.9,0.31,2.86c0.05,2.49-1.74,4.1-3.53,4.94c-1.55,0.72-2.59-1.26-3.47-2.53
				c-3.94-5.71-3.92-12.22-3.4-18.7c0.42-5.27,2.34-10.15,4.22-15.13c2.87-7.57,6.79-14.43,10.94-21.27
				c1.5-2.47,3.47-3.78,5.98-4.77c2.98-1.18,6.24-1.87,8.63-4.24c2.1-2.08,1.81-3.46-1.03-4.28c-4.16-1.2-7.91-2.86-9.98-6.98
				c-0.67-1.33-1.54-1.2-2.93-0.94c-5.83,1.09-9.08-1.69-8.81-7.62c0.14-2.98-0.37-5.6-1.66-8.28c-1.68-3.49-3.08-7.21-3.5-11.06
				c-1.05-9.49,5-15.12,11.94-19.68c10.29-6.77,21.69-7.97,33.57-5.18c0.78,0.18,1.7,0.53,2.19,1.11c3.55,4.19,7.02,8.47,7.58,14.23
				c0.19,1.94,0.66,3.74,1.45,5.52c5.12,11.48,4.69,22.82-1.03,33.96c-1.99,3.88-5.95,4.94-9.61,6.41c-1.24,0.5-3.08,0.23-3.43,2.1
				c-0.37,1.97,1.29,2.81,2.51,3.58c5.57,3.54,11.36,6.58,18.25,6.43c2.4-0.05,4.59-0.08,6.42,2.25c1.08,1.36,3.28,0.73,4.87-0.24
				c1.64-1,3.17-2.23,4.91-3c4.57-2.01,7.38-4.85,6.67-10.38c-0.26-2.03,0.92-4.14,3.49-4.22c2.1-0.07,2.18-1.27,2.21-2.83
				c0.09-5.04,0.28-10.07,0.35-15.11c0.03-2.17,0.56-3.92,3.1-3.91c2.49,0.01,3.92,0.92,3.65,3.94c-0.34,3.81-0.09,7.67-0.1,11.51
				c-0.01,2.29-0.85,4.8,2.71,5.56c1.44,0.31,0.93,2.22,0.57,3.19c-5.88,16.08-4.01,32.91-4.63,49.45
				c-0.89,23.74-1.18,47.49-1.75,71.24c-0.03,1.31-0.25,2.62-0.47,3.92c-0.34,1.96-0.9,4.18-3.41,3.66c-1.95-0.4-3.3-1.7-3.22-4.39
				c0.98-34.18,1.81-68.37,2.67-102.55c0.03-1.05,0-2.09,0-3.24c-1.53-0.09-1.9,0.92-2.42,1.61c-4.03,5.4-9.39,8.46-16.09,9.08
				c-1.17,0.11-2.17,0.25-2.48,1.55c-0.65,2.73-2.82,2.77-4.84,2.45c-2.83-0.45-5.67-1.09-8.37-2.03c-2.58-0.89-2.72,0.26-2.82,2.31
				c-0.42,9.03,0.61,17.97,1.67,26.9c0.48,4.04,1.36,7.81-0.87,11.87c-1,1.83,0.13,4.92-0.82,7.34
				C264.16,770.07,263.25,772.24,262.16,774.9z M261.77,703.89c1.96,3.22,2.7,6.8,3.07,10.47c0.13,1.3,0.03,2.61,1.61,3.28
				c3.34,1.41,6.82,2.25,10.38,2.78c1.19,0.18,1.89-0.13,1.28-1.59c-1.84-4.43-2.12-8.99-0.72-13.56c0.55-1.81-0.16-2.11-1.66-2.07
				c-6.53,0.19-12.48-1.76-18.15-4.85c-1.57-0.86-3.65-4.18-4.89,0.46c-0.08,0.32-1.03,0.54-1.59,0.57
				c-2.9,0.13-6.37,0.46-8.04-2.02c-3.1-4.59-6.05-2.2-9.27-0.72c-1.96,0.9-3.99,1.64-5.95,2.53c-0.75,0.34-1.72,0.71-2.06,1.36
				c-3.03,5.71-7,10.9-9.31,16.99c-0.49,1.31-0.51,2.64,1.29,2.49c4.06-0.36,6.57,2.02,8.87,4.98c1.99-2.54,2.96-5.46,6.28-7.73
				c-1.07,3-3.52,4.27-3.52,6.63c-0.04,10.06,0,20.13,0.02,30.2c0,1.18,0.19,2.22,1.82,1.81c7.92-1.99,15.38,0.23,22.95,2.23
				c3.16,0.83,6.55,1.67,9.89,0.27c1.33-0.55,2.17-1.15,1.92-2.9c-0.44-3.06-0.76-6.17-0.78-9.26c-0.03-3.88-1.98-7.5-1.8-11.25
				C263.9,724.57,264.84,714.19,261.77,703.89z M261.59,645.55c-1.03-3.88-3.49-5.31-6.98-5.38c-8.67-0.18-16.56,2.06-23.55,7.32
				c-4.63,3.48-5.05,4.66-3.01,10c0.42,1.11,1.21,2.18,0.35,3.37c-2.49,3.45-2.23,7.18-1.21,11c0.29,1.08,0.6,2.21-0.86,2.67
				c-1.29,0.41-2.4,0.13-2.95-1.25c-0.58-1.45-1.79-2.23-3.06-2.9c-1.04-0.55-2.29-0.72-2.63,0.71c-0.51,2.13-0.59,4.35,1.12,6.08
				c1.47,1.49,3.23,2.17,5.18,0.93c2.21-1.41,3.45-0.54,4.53,1.52c1.89,3.59,4.93,6.15,8.87,6.69c3.83,0.52,5.11,2.4,5.03,5.87
				c-0.01,0.36,0.02,0.73,0.1,1.07c0.56,2.44,3.83,4.28,6.89,3.9c3.19-0.39,1.51-2.79,1.54-4.22c0.05-2.7,1.45-3.82,3.78-4.46
				c3.49-0.96,7.4-2.04,9.21-5.13c5.18-8.83,6.9-18.36,3.35-28.3c-0.79-2.22-1.83-4.7-3.51-6.2c-4.21-3.73-9.74-1.34-10.53,4.25
				c-0.07,0.47-0.13,0.96-0.78,0.96C251.13,646.81,254.08,643.92,261.59,645.55z M224.39,669.89c0.09-1.81-0.29-3.58,0.34-4.84
				c1.94-3.85,1.54-7.55,0.29-11.44c-0.54-1.67-0.69-3.48,0.98-4.96c7.6-6.75,16.16-11.08,26.58-10.79
				c3.55,0.1,7.18,0.12,10.03,3.23c-0.98-2.82-2.18-5.43-3.74-7.82c-0.74-1.13-1.53-2.69-3.06-2.89c-4.84-0.61-9.81-1.91-14.53-1.33
				c-6.88,0.84-13.72,3-19.34,7.34c-5.33,4.12-10.35,8.81-9.47,16.56c0.57,5.03,3.04,9.48,4.88,14.11c0.25,0.63,0.8,0.94,1.41,0.91
				C220.79,667.89,222.26,669.4,224.39,669.89z M233.57,817.42c2.68-1.93,4.2-1.35,5.58,0.34c0.66,0.82,0.2,2.81,1.98,2.26
				c0.29-0.09-0.05-2.47-0.24-3.78c-0.06-0.39-0.66-0.67-0.95-1.04c-4.54-5.76-4.38-9.31,0.66-14.41c1.26-1.28,2.59-2.49,3.87-3.75
				c5.53-5.45,5.54-5.46,1.07-11.79c-0.53-0.75-0.87-1.96-1.99-1.79c-1.1,0.16-1.09,1.45-1.52,2.26c-2.01,3.74-2.27,8.23-6.7,10.92
				c-3.1,1.89-5.02,5.69-7.55,8.56c-1.3,1.47-1.53,2.93-0.47,4.55c1.95,3,3.83,6.06,5.96,8.93c1.05,1.41,2.9,1.51,4.6,1.37
				c0.51-0.04,0.78-0.54,0.58-1.08C237.71,817.04,235.96,817.57,233.57,817.42z M217.22,754.69c0.99-1.55,0.05-3.01-0.15-4.45
				c-0.23-1.65-0.9-3.69,0.54-4.66c1.46-0.99,2.33,1.03,3.38,1.9c0.44,0.36,1.03,0.6,1.6,0.74c0.86,0.22,1.76,0.13,2.13-0.81
				c0.38-0.97-0.58-1.06-1.13-1.46c-2.64-1.89-2.26-6.13-5.74-7.43c-0.12-0.05-0.05-0.88,0.08-1.3c1.3-4.1,2.92-8.13,2.41-12.58
				c-0.04-0.34,0.12-0.7,0.22-1.04c0.23-0.84,2.44,0.93,1.6-1.14c-0.36-0.89-1.52-1.03-2.5-1.16c-2.48-0.33-4.4,0.23-5.64,2.68
				c-4.93,9.66-5.65,19.63-2.34,29.91c0.51,1.57,1.52,2.91,3.18,3.7c1.78-2.58-1.98-4.3-0.77-6.7
				C215.69,751.71,215.11,754.18,217.22,754.69z M284.54,709.31c-0.23-3.57-2.64-2.96-4.61-2.89c-2.57,0.09-1.59,2.17-1.77,3.54
				c-0.15,1.18-0.21,2.39-0.14,3.58c0.09,1.67,0.85,2.22,2.73,2.41c9.77,0.99,15.64-4.57,20.59-11.8c1.1-1.61,1.2-3.59,0.4-5.17
				c-1.35-2.66,0.24-5.78-1.62-8.31c-0.44-0.6,0.43-0.7,0.9-1.02c2.08-1.4,2.85,1.51,4.56,1.41c-0.51-2.87-1.2-3.23-4.68-3.33
				c-2.22-0.06-2.88,1.32-2.7,2.93c0.65,5.88-2.19,9.22-7.37,11.34C287.74,703.25,285.58,705.64,284.54,709.31z M304.99,759.05
				c0.02,0,0.04,0,0.06,0c0.46-16.67,0.93-33.33,1.39-50c0.04-1.44,0.06-2.88,0.03-4.32c-0.02-0.86-0.12-1.81-1.3-1.72
				c-0.92,0.07-0.98,0.91-1.03,1.63c-0.07,0.84-0.07,1.68-0.09,2.52c-0.52,21.11-1.05,42.22-1.56,63.32
				c-0.33,13.55-0.66,27.1-0.96,40.66c-0.02,1.12-0.46,2.89,1.19,2.9c1.92,0.01,0.95-1.8,0.98-2.82
				C304.15,793.83,304.56,776.44,304.99,759.05z M305.25,676.84c-0.15,0-0.31,0-0.46,0c0,2.27-0.05,4.53,0.02,6.8
				c0.03,0.98-0.62,2.64,0.73,2.76c1.43,0.13,1.54-1.59,1.6-2.74c0.25-5,0.42-10.01,0.61-15.02c0.03-0.85,0.05-1.77-1.18-1.76
				c-1.14,0.01-1.31,0.84-1.32,1.73C305.24,671.35,305.25,674.09,305.25,676.84z M305.49,695.7c-1.19,0.31-3.03-0.81-2.94,1.12
				c0.08,1.69,1.76,2.46,3.45,2.41c1.28-0.03,3.24,0.75,3.31-1.52C309.42,694.37,306.36,697.06,305.49,695.7z M305.97,694.78
				c1.14-0.18,2.09-0.32,3.03-0.48c1.24-0.22,1.58-1.12,1.26-2.13c-0.43-1.34-1.49-1.11-2.25-0.38c-1.13,1.08-2.35,0.99-3.67,0.66
				c-0.64-0.16-1.48-0.73-1.82,0.26c-0.3,0.87,0.55,1.26,1.2,1.5C304.49,694.5,305.33,694.62,305.97,694.78z M309.58,689.68
				c1.06-0.12,1.91-0.56,1.93-1.71c0.02-1.13-0.65-1.75-1.83-1.64c-1.04,0.1-1.85,0.57-1.95,1.71
				C307.63,689.33,308.57,689.57,309.58,689.68z"/>
			<path d="M295.89,804.24c-0.01,4.28,0.03,8.51-3.15,12.04c-3.19,3.55-7.41,4.64-11.8,5.34c-2.34,0.37-4-0.23-4.67-3.06
				c-0.83-3.49-3.38-6.41-6.26-8.06c-7-4-10.7-10.36-13.99-17.19c-0.52-1.07-0.94-2.12-2.27-2.6c-3.34-1.19-2.71-3.31-1.22-5.67
				c2.58-4.1,5.97-7.13,10.67-8.57c1.77-0.54,1.75,1.1,1.84,1.83c0.52,4.2,2.79,7.88,4.38,11.54c2.18,4.99,5.08,10.02,9.15,14.03
				c5.92,5.82,7.71,5.65,12.78-1.23c0.97-1.32,2.05-2.39,4.35-1.05c-2.3,0.71-4.12,1.62-4.03,4.32
				C293.09,805.36,294.49,804.8,295.89,804.24z M280.69,820.05c2.69,0.08,5.06-1.01,7.57-1.8c2.65-0.84,0.35-5.09,3.87-4.73
				c-0.11-0.19-0.28-0.37-0.32-0.58c-0.33-1.92-0.52-3.76,1.87-4.6c0.55-0.19,0.59-0.76,0.17-1.15c-0.18-0.17-0.61-0.16-0.89-0.1
				c-3.64,0.88-7.28,1.79-10.92,2.69c-0.52,0.13-1.57,0.51-1.48-0.05c0.49-3.21-2.56-4.04-3.93-5.87
				c-5.13-6.82-9.09-14.25-12.23-22.12c-1.29-3.22-3.16-3.53-5.86-1.88c-3.53,2.15-5.61,6.48-3.96,8.69
				c2.22,2.98,4.18,6.05,5.52,9.57c1.39,3.65,3.79,6.5,7.47,8.34c4.81,2.41,7.64,6.76,9.79,11.5
				C278.08,819.57,278.63,820.83,280.69,820.05z"/>
			<path d="M1060.63,555.19c-4.45-3.6-9.03-7.04-13.3-10.85c-2.55-2.27-5.85-3.14-8.59-5.3c5.85-0.2,19.19,9.82,21.81,16.22
				L1060.63,555.19z"/>
			<path d="M1059.75,800.74c-0.34,1.24-1.48,1.82-2.25,2.7c-2.3,2.65-2.3,2.65-4.39-0.51c0.62-0.88,1.49-0.43,2.29-0.47
				c1.1-0.05,1.27-0.79,1.24-1.74c-0.02-0.77-3.21,0.06-0.9-1.71c1.53-1.17,2.61-0.41,3.23,1.26c0.1,0.26,0.58,0.37,0.88,0.55
				L1059.75,800.74z"/>
			<path d="M1060.55,555.27c4.4,3.56,8.25,7.53,9.93,13.15c0,0,0.08-0.08,0.08-0.08c-3.54-4.21-7.2-8.33-9.92-13.15
				C1060.63,555.19,1060.55,555.27,1060.55,555.27z"/>
			<path d="M1059.85,800.82c-0.11-1.58,0.87-3.78-2.5-3.66c1.61-0.85,3.01-1.03,3.65,0.3c0.56,1.16,1,2.89-1.24,3.26
				C1059.75,800.74,1059.85,800.82,1059.85,800.82z"/>
			<path d="M734.59,659.18c-3.07,0.01-4.98-0.63-6.77-1.69c-1.34-0.79-2.73-1.7-4.32-0.59c-0.8,0.55-0.91,1.4-0.58,2.25
				c0.68,1.72,1.55,3.28,3.68,3.52c1.9,0.22,3.84,0.14,5.65,0.95c1,0.45,2.23,0.81,2.01,2.16c-0.24,1.51-1.62,1.58-2.84,1.59
				c-4.6,0.06-10.03-4.76-10.53-9.33c-0.26-2.38,3.14-4.85,5.28-3.44c3.66,2.42,7.32,3.36,11.54,2.06c0.63-0.19,1.59-0.3,1.67,0.72
				c0.08,0.92-0.83,1.06-1.51,1.2C736.47,658.87,735.06,659.1,734.59,659.18z"/>
			<path d="M728.88,597.1c0.88,0.16,1.17,0.83,1.3,1.54c0.32,1.63,0.66,3.27,0.82,4.92c0.23,2.42,0.54,4.74,2.86,6.2
				c0.58,0.37,1.24,1.02,0.82,1.77c-0.54,0.94-1.48,0.55-2.21,0.18c-0.62-0.32-1.35-0.73-1.64-1.3c-1.93-3.73-2.81-7.78-3.19-11.93
				C727.57,597.72,727.98,597.08,728.88,597.1z"/>
			<path d="M723.09,648.25c-0.05,0.68,0.2,1.55-0.75,1.76c-0.88,0.2-1.25-0.58-1.52-1.21c-1.31-3.06-2.59-6.13-3.84-9.22
				c-0.26-0.65-0.52-1.48,0.23-1.93c0.77-0.46,1.28,0.22,1.76,0.77C719.98,639.57,723.04,646.89,723.09,648.25z"/>
			<path d="M721.74,620.05c-2.16,2.22-3.35,5.51-4.89,8.6c-0.2,0.4-0.77,0.72-1.22,0.35c-0.33-0.27-0.59-0.73-0.68-1.15
				c-0.36-1.85,3.16-8.44,4.96-9.29c0.39-0.19,0.93-0.28,1.34-0.17C721.73,618.53,721.93,619.03,721.74,620.05z"/>
			<path d="M733.45,615.63c-0.37,1.15-1.25,1.16-2.05,0.88c-1.16-0.41-2.82-0.36-2.93-2.1c-0.07-1.07,0.85-1.43,1.76-1.18
				C731.6,613.6,732.98,614.07,733.45,615.63z"/>
			<path d="M711.93,650.53c1.87-0.94,3.36-0.35,5.31,1.27C714.8,652.42,713.36,651.45,711.93,650.53z"/>
			<path d="M600.77,672.07c-3.53,2.05-6.83,1.67-9.98-0.55c-1.16-0.82-2.3-1.88-3.89-1.1c-0.74,0.36-0.96,1.11-0.75,1.84
				c0.47,1.64,1.09,3.19,3.09,3.55c1.76,0.32,3.56,0.54,5.1,1.57c0.74,0.49,1.38,1.06,0.99,2.04c-0.3,0.76-1.05,0.89-1.79,0.96
				c-3.99,0.38-9.77-5.53-9.05-9.49c0.41-2.26,2.83-3.55,4.32-2.42C592.44,671.19,596.27,672.25,600.77,672.07z"/>
			<path d="M595.97,622.13c-0.04-0.71-0.14-1.43-0.1-2.14c0.04-0.61,0.29-1.2,1.04-1.21c0.71-0.01,1.11,0.52,1.18,1.12
				c0.17,1.54,0.31,3.09,0.31,4.64c-0.01,2.07,0,4.06,1.77,5.57c0.5,0.43,1.22,1.1,0.56,1.79c-0.74,0.78-1.56,0.12-2.23-0.35
				c-1.84-1.27-1.53-3.38-1.94-5.19c-0.32-1.39-0.48-2.81-0.71-4.21C595.89,622.14,595.93,622.13,595.97,622.13z"/>
			<path d="M587.38,662.44c-0.02,0.96,0.05,1.87-0.85,1.97c-0.84,0.09-1.1-0.78-1.3-1.45c-0.83-2.74-1.65-5.48-2.43-8.23
				c-0.19-0.67-0.39-1.5,0.52-1.81c0.7-0.24,1.07,0.41,1.32,0.92C585.99,656.65,586.76,659.65,587.38,662.44z"/>
			<path d="M583.05,645.62c-0.94-0.32-1.1-1.01-0.88-1.75c0.84-2.83,2.55-5.1,4.78-6.98c0.45-0.38,1.06-0.58,1.63-0.13
				c0.48,0.37,0.43,0.99,0.14,1.28c-2.01,2.08-3.5,4.5-4.88,7.01C583.71,645.32,583.3,645.45,583.05,645.62z"/>
			<path d="M596.6,632.87c1.2,0.41,2.46,0.93,2.81,2.35c0.16,0.68-0.52,1.08-1.16,0.91c-1.25-0.33-2.67-0.6-3.06-2.07
				C594.95,633.15,595.75,632.9,596.6,632.87z"/>
			<path d="M581.99,665.27c-2.37,0.45-3.43-0.52-5.52-1.37C579.19,663.03,580.26,663.98,581.99,665.27z"/>
			<path d="M824.08,675.3c-4.34,1.68-7.63,1.34-10.78-0.87c-1.16-0.81-2.29-1.91-3.89-1.14c-0.89,0.43-1,1.27-0.72,2.16
				c0.52,1.69,1.35,3.05,3.32,3.32c1.54,0.22,3.08,0.46,4.45,1.29c0.84,0.5,1.76,1.02,1.35,2.2c-0.33,0.93-1.25,0.99-2.11,1
				c-4.03,0.05-9.39-5.58-8.74-9.44c0.38-2.28,2.34-3.12,4.37-2.54c2.03,0.58,3.35,2.65,5.52,3.23
				C818.93,675.05,821.09,673.69,824.08,675.3z"/>
			<path d="M819.53,621.65c0.85,0.18,1.05,0.87,1.15,1.6c0.5,3.66-0.69,7.68,2.6,10.76c0.66,0.62-0.35,1.18-1.15,0.99
				c-1.12-0.26-2-1.01-2.32-2.06c-0.95-3.2-1.44-6.5-1.47-9.85C818.34,622.35,818.53,621.65,819.53,621.65z"/>
			<path d="M809.84,665.14c-0.02,0.86,0.22,1.77-0.6,2.05c-1.17,0.4-1.33-0.73-1.55-1.45c-0.86-2.73-1.66-5.48-2.43-8.23
				c-0.19-0.67-0.33-1.54,0.63-1.74c0.65-0.14,1.02,0.5,1.28,1.03C808.46,659.51,809.17,662.4,809.84,665.14z"/>
			<path d="M811.4,640.9c-2.47,1.8-3.36,5.11-5.59,7.37c-0.77,0.78-1.39-0.6-1.15-1.42c0.83-2.96,2.54-5.38,5.02-7.18
				C810.44,639.11,811.29,639.23,811.4,640.9z"/>
			<path d="M819.18,635.77c1.15,0.45,2.45,0.95,2.72,2.41c0.12,0.67-0.63,1.02-1.25,0.83c-1.22-0.38-2.69-0.62-2.99-2.14
				C817.48,635.98,818.3,635.73,819.18,635.77z"/>
			<path d="M804.22,668.25c-2.21,0.24-3.35-0.48-4.79-1.73C801.57,666.02,802.76,666.65,804.22,668.25z"/>
			<path d="M551.75,809.06c1.76-1.3,2.91-1.52,4.36-0.74C554.97,809.66,553.7,809.48,551.75,809.06z"/>
			<path d="M1003.02,598.72c-1.11-3.64-3.03-6.67-5.77-9.21C1001.36,591.05,1003.43,594.36,1003.02,598.72z"/>
			<path d="M1018.67,594.07c-3.62,1.23-5.44,0.74-8.97-2.44C1013.11,592.5,1015.69,594.01,1018.67,594.07z"/>
			<path d="M1030.85,614.44c-4.82,0.47-8.48,3.47-12.9,5.89C1020.25,616.38,1026.86,613.38,1030.85,614.44z"/>
			<path d="M1020.91,638.6c-0.48-2.51,0.58-5.09-0.21-7.62C1022.92,633.35,1022.12,635.96,1020.91,638.6z"/>
			<path d="M1033.92,637.96c1.05,1.55,1.4,2.92,1.7,4.6C1033.72,640.89,1033.72,640.89,1033.92,637.96z"/>
			<path d="M1024.44,579.4c-2.58,0.32-3.91-2.25-6.08-3.02c-0.49-0.17-0.77-0.76-0.4-1.14c0.47-0.48,1.29-1.18,1.74-1.05
				c4.04,1.18,7.64-0.79,11.41-1.41c0.84-0.14,1.88,0.02,2.15,0.87c0.27,0.84,0.29,1.96-0.06,2.76c-0.66,1.52-1.36-0.45-1.84-0.2
				c-2.21,1.14-4.62,0.48-6.85,0.92C1022.07,577.62,1025.64,578.51,1024.44,579.4z"/>
			<path d="M1017.1,567.66c-1.89-0.22-4.48,0.07-4.49-2.03c0-2.44,2.11-4.22,4.77-4.57c2.32-0.3,4.76-0.38,5.62,2.49
				c0.69,2.31-0.82,3.22-3.09,3.65c-0.19-1.43,3.18-2.19,0.92-3.64c-1.93-1.23-3.89-0.21-5.17,1.22
				C1014.14,566.49,1017.21,566.02,1017.1,567.66z"/>
			<path d="M1025.2,570.33c-0.92-0.11-2.06,0.1-2.21-1.21c-0.1-0.88,0.58-1.42,1.33-1c0.95,0.53,2.76-0.22,2.83,1.44
				C1027.19,570.74,1025.89,570.16,1025.2,570.33z"/>
			<path d="M233.71,712.93c-0.23-4.35-0.94-8.52-3.59-12.5C233.67,702.37,235.38,708.34,233.71,712.93z"/>
			<path d="M253.64,659.58c4.05,2.1,4.08,2.75,0.48,7.19c2.27-0.13,4.24,0.43,6.23,0.95c0.54,0.14,1.25-0.17,1.37,0.64
				c0.11,0.72-0.48,1.16-1.04,1.26c-2.8,0.5-5.29,2.13-8.29,2.02c-5.14-0.2-10.3-0.11-15.44-0.22c-0.99-0.02-2.67,0.27-2.67-1.04
				c0-1.5,1.58-1.51,2.8-1.27c3.68,0.73,6.95-1.2,10.46-1.57c2.26-0.24,4.62,0.12,5.83-3.01
				C254.04,662.79,255.68,661.59,253.64,659.58z"/>
			<path d="M231.94,655.91c1.22-5.84,5.83-9.63,10.4-8.74c1.02,0.2,2.38,0.22,2.24,1.7c-0.12,1.29-1.36,1.12-2.27,1.07
				c-3.6-0.2-6.1,1.52-7.99,4.4C233.82,655.11,233.42,656.08,231.94,655.91z"/>
			<path d="M249.21,666.17c-2.47-0.26-4.9,0.04-4.68-3.04c0.1-1.32,0.35-2.81,2.53-2.51c2.26,0.31,4.46,0.95,4.88,3.24
				C252.14,664.91,250.93,666.97,249.21,666.17z"/>
			<path d="M244.77,658.46c-4.2-0.55-7.58,1.46-11.45,4.16C235.32,657.24,240.8,655.48,244.77,658.46z"/>
			<path d="M260.41,653.42c0.57,0.09,1.18,0.11,1.75,0.27c0.78,0.22,1.83,0.41,1.58,1.52c-0.22,0.97-1.15,0.62-1.8,0.46
				c-1.82-0.43-3.55-0.47-5.1,0.8c-0.52,0.43-1.21,0.53-1.51-0.12c-0.27-0.57,0.2-1.12,0.7-1.5
				C257.3,653.84,258.85,653.66,260.41,653.42z"/>
			<path d="M253.01,677.38c-0.84,0.09-1.21-0.41-1.07-0.8c0.65-1.72,2.3-2.24,3.8-2.87c0.45-0.19,1.18,0.05,1.02,0.55
				C256.16,676.14,254.02,676.23,253.01,677.38z"/>
			<path d="M277.6,814.47c1.07,0.66,2.14,1.32,3.64,2.24c-2.4,0.72-3.18-0.49-4.13-1.4C277.27,815.03,277.43,814.75,277.6,814.47z"
				/>
		</g>
	</g>
</g>
<g id="Layer_2">
</g>
</svg>
